<?xml version="1.0" encoding="utf-8"?>
<!-- Generator: Fusion 360, Shaper Origin Export Add-In, Version 1.8.0  -->
<svg xmlns="http://www.w3.org/2000/svg" xmlns:xlink="http://www.w3.org/1999/xlink" xmlns:shaper="http://www.shapertools.com/namespaces/shaper" shaper:fusionaddin="version:1.8.0" width="25.1114643cm" height="30.0000001cm" version="1.1" x="0cm" y="0cm" viewBox="0 0 25.1114643 30.0000001" enable-background="new 0 0 25.1114643 30.0000001" xml:space="preserve"><path d="M-4.9642675,-12.9999993 L-4.9642675,-14.4800001 -2.4842677,-14.48 -2.4842677,-15 -0.4842677,-15 -0.4842677,-14.48 1.5157323,-14.48 1.5157323,-15 3.5157323,-15 3.5157323,-12.9999993 4.0357323,-12.9999993 4.0357323,-14.48 6.0357321,-14.48 6.0357321,-15 8.0357321,-15 8.0357321,-14.48 10.0357321,-14.48 10.0357321,-15 12.5557321,-15 12.5557321,-14.4799993 12.5557321,-12.4799993 12.0357321,-12.4799993 12.0357321,-10.4799993 12.5557321,-10.4799993 12.5557321,-8.4799993 12.0357321,-8.4799993 12.0357321,-6.4799993 12.5557321,-6.4799993 12.5557321,-5.2599995 12.0357321,-5.26 10.0357321,-5.26 10.0357321,-4.74 12.0357321,-4.74 12.0357321,-2.4799993 12.5557321,-2.4799993 12.5557321,-0.4799993 12.0357321,-0.4799993 12.0357321,1.5200007 12.5557321,1.5200007 12.5557321,3.5200007 12.0357321,3.5200007 12.0357321,4.7400003 10.0357321,4.7400003 10.0357321,5.2600003 12.0357321,5.2600003 12.0357321,5.5200007 12.5557321,5.5200007 12.5557321,7.5200007 12.0357321,7.5200007 12.0357321,9.5200007 12.5557321,9.5200007 12.5557321,11.5200007 12.0357321,11.5200007 12.0357321,13.5200007 12.5557321,13.5200007 12.5557321,15.0000001 4.0357323,15.0000001 4.0357323,13 3.5157323,13 3.5157323,15 1.5157323,15 1.5157323,14.48 -0.4842676,14.48 -0.4842676,15 -2.4842676,15 -2.4842676,14.48 -4.9642675,14.48 -4.9642675,13.0000001 -5.4842675,13.0000001 -5.4842675,15 -7.4842675,15 -7.4842675,14.48 -9.4842675,14.48 -9.4842675,15 -11.4842675,15 -11.4842675,14.48 -12.0357321,14.48 -12.0357321,11.48 -12.5557321,11.48 -12.5557321,8.48 -12.0357321,8.48 -12.0357321,5.4800002 -12.5557321,5.4800002 -12.5557321,2.4800003 -12.0357321,2.4800003 -12.0357321,-2.4799994 -12.5557321,-2.4799994 -12.5557321,-5.4799994 -12.0357321,-5.4799994 -12.0357321,-8.4799994 -12.5557321,-8.4799994 -12.5557321,-11.4799994 -12.0357321,-11.4799994 -12.0357321,-14.4800001 -11.4842673,-14.4800001 -11.4842673,-15.0000001 -9.4842674,-15.0000001 -9.4842674,-14.4800001 -7.4842674,-14.4800001 -7.4842674,-15.0000001 -5.4842675,-15.0000001 -5.4842675,-14.4799993 -5.4842675,-12.9999993 -4.9642675,-12.9999993z" transform="matrix(1,0,0,-1,12.5557321,15.0000001)" fill="rgb(0,0,0)" stroke-linecap="round" stroke-linejoin="round" /><path d="M-4.9642675,7.0000002 L-4.9642675,5.0000003 -5.4842675,5.0000002 -5.4842675,7.0000002 -4.9642675,7.0000002z" transform="matrix(1,0,0,-1,12.5557321,15.0000001)" fill="rgb(255,255,255)" stroke="rgb(0,0,0)" stroke-width="0.0010cm" stroke-linecap="round" stroke-linejoin="round" /><path d="M-4.9642675,-8.9999994 L-4.9642675,-10.9999994 -5.4842675,-10.9999994 -5.4842675,-8.9999994 -4.9642675,-8.9999994z" transform="matrix(1,0,0,-1,12.5557321,15.0000001)" fill="rgb(255,255,255)" stroke="rgb(0,0,0)" stroke-width="0.0010cm" stroke-linecap="round" stroke-linejoin="round" /><path d="M-4.9642675,-4.9999995 L-4.9642675,-6.9999995 -5.4842675,-6.9999995 -5.4842675,-4.9999995 -4.9642675,-4.9999995z" transform="matrix(1,0,0,-1,12.5557321,15.0000001)" fill="rgb(255,255,255)" stroke="rgb(0,0,0)" stroke-width="0.0010cm" stroke-linecap="round" stroke-linejoin="round" /><path d="M-4.9642675,11.0000002 L-4.9642675,9.0000002 -5.4842675,9.0000002 -5.4842675,11.0000002 -4.9642675,11.0000002z" transform="matrix(1,0,0,-1,12.5557321,15.0000001)" fill="rgb(255,255,255)" stroke="rgb(0,0,0)" stroke-width="0.0010cm" stroke-linecap="round" stroke-linejoin="round" /><path d="M-4.9642675,3.0000003 L-4.9642675,1.0000003 -5.4842675,1.0000003 -5.4842675,3.0000003 -4.9642675,3.0000003z" transform="matrix(1,0,0,-1,12.5557321,15.0000001)" fill="rgb(255,255,255)" stroke="rgb(0,0,0)" stroke-width="0.0010cm" stroke-linecap="round" stroke-linejoin="round" /><path d="M-4.9642675,-0.9999996 L-4.9642675,-2.9999996 -5.4842675,-2.9999996 -5.4842675,-0.9999996 -4.9642675,-0.9999996z" transform="matrix(1,0,0,-1,12.5557321,15.0000001)" fill="rgb(255,255,255)" stroke="rgb(0,0,0)" stroke-width="0.0010cm" stroke-linecap="round" stroke-linejoin="round" /><path d="M3.5157323,5 L3.5157323,4.7400003 1.5157323,4.7400003 1.5157323,5.2600003 3.5157323,5.2600003 3.5157323,7 4.0357323,7 4.0357323,5 3.5157323,5z" transform="matrix(1,0,0,-1,12.5557321,15.0000001)" fill="rgb(255,255,255)" stroke="rgb(0,0,0)" stroke-width="0.0010cm" stroke-linecap="round" stroke-linejoin="round" /><path d="M3.5157323,-8.9999993 L4.0357323,-8.9999993 4.0357323,-10.9999993 3.5157323,-10.9999993 3.5157323,-8.9999993z" transform="matrix(1,0,0,-1,12.5557321,15.0000001)" fill="rgb(255,255,255)" stroke="rgb(0,0,0)" stroke-width="0.0010cm" stroke-linecap="round" stroke-linejoin="round" /><path d="M3.5157323,9 L3.5157323,11 4.0357323,11 4.0357323,9 3.5157323,9z" transform="matrix(1,0,0,-1,12.5557321,15.0000001)" fill="rgb(255,255,255)" stroke="rgb(0,0,0)" stroke-width="0.0010cm" stroke-linecap="round" stroke-linejoin="round" /><path d="M4.0357323,3 L4.0357323,1 3.5157323,1 3.5157323,3 4.0357323,3z" transform="matrix(1,0,0,-1,12.5557321,15.0000001)" fill="rgb(255,255,255)" stroke="rgb(0,0,0)" stroke-width="0.0010cm" stroke-linecap="round" stroke-linejoin="round" /><path d="M3.5157323,-0.9999993 L4.0357323,-0.9999993 4.0357323,-2.9999993 3.5157323,-2.9999993 3.5157323,-0.9999993z" transform="matrix(1,0,0,-1,12.5557321,15.0000001)" fill="rgb(255,255,255)" stroke="rgb(0,0,0)" stroke-width="0.0010cm" stroke-linecap="round" stroke-linejoin="round" /><path d="M8.0357321,-4.74 L8.0357321,-5.26 6.0357321,-5.26 6.0357321,-4.74 8.0357321,-4.74z" transform="matrix(1,0,0,-1,12.5557321,15.0000001)" fill="rgb(255,255,255)" stroke="rgb(0,0,0)" stroke-width="0.0010cm" stroke-linecap="round" stroke-linejoin="round" /><path d="M8.0357321,5.2600003 L8.0357321,4.7400003 6.0357321,4.7400003 6.0357321,5.2600003 8.0357321,5.2600003z" transform="matrix(1,0,0,-1,12.5557321,15.0000001)" fill="rgb(255,255,255)" stroke="rgb(0,0,0)" stroke-width="0.0010cm" stroke-linecap="round" stroke-linejoin="round" /><path d="M-0.4842677,5.2600003 L-0.4842677,4.7400003 -2.4842677,4.7400002 -2.4842677,5.2600002 -0.4842677,5.2600003z" transform="matrix(1,0,0,-1,12.5557321,15.0000001)" fill="rgb(255,255,255)" stroke="rgb(0,0,0)" stroke-width="0.0010cm" stroke-linecap="round" stroke-linejoin="round" /><path d="M-0.4842679,-4.7399995 L-0.4842679,-5.2599995 -2.4842679,-5.2599995 -2.4842679,-4.7399995 -0.4842679,-4.7399995z" transform="matrix(1,0,0,-1,12.5557321,15.0000001)" fill="rgb(255,255,255)" stroke="rgb(0,0,0)" stroke-width="0.0010cm" stroke-linecap="round" stroke-linejoin="round" /><path d="M3.5157321,-4.7399995 L3.5157323,-4.9999993 4.0357323,-4.9999993 4.0357323,-6.9999993 3.5157323,-6.9999993 3.5157321,-5.2599995 1.5157321,-5.2599995 1.5157321,-4.7399995 3.5157321,-4.7399995z" transform="matrix(1,0,0,-1,12.5557321,15.0000001)" fill="rgb(255,255,255)" stroke="rgb(0,0,0)" stroke-width="0.0010cm" stroke-linecap="round" stroke-linejoin="round" /></svg>