<?xml version="1.0" encoding="utf-8"?>
<!-- Generator: Fusion 360, Shaper Origin Export Add-In, Version 1.8.0  -->
<svg xmlns="http://www.w3.org/2000/svg" xmlns:xlink="http://www.w3.org/1999/xlink" xmlns:shaper="http://www.shapertools.com/namespaces/shaper" shaper:fusionaddin="version:1.8.0" width="32cm" height="20cm" version="1.1" x="0cm" y="0cm" viewBox="0 0 32 20" enable-background="new 0 0 32 20" xml:space="preserve"><path d="M16,10 L-16,10 -16,-10 16,-10 16,10z" transform="matrix(1,0,0,-1,16,10)" fill="rgb(0,0,0)" stroke-linecap="round" stroke-linejoin="round" /><path d="M-5.2600005,6.9999995 L-5.2600005,8.4799995 -7.0000007,8.4799995 -7.0000007,8.9999995 -4.7400005,8.9999995 -4.7400005,6.9999995 -5.2600005,6.9999995z" transform="matrix(1,0,0,-1,16,10)" fill="rgb(255,255,255)" stroke="rgb(0,0,0)" stroke-width="0.0010cm" stroke-linecap="round" stroke-linejoin="round" /><path d="M12.5200006,0.26 L14.48,0.26 14.48,1 15,1 15,-1 14.48,-1 14.48,-0.26 12.5200006,-0.26 12.5200006,0.26z" transform="matrix(1,0,0,-1,16,10)" fill="rgb(255,255,255)" stroke="rgb(0,0,0)" stroke-width="0.0010cm" stroke-linecap="round" stroke-linejoin="round" /><path d="M4.7399995,8.9999995 L6.9999993,8.9999995 6.9999993,8.4799995 5.2599995,8.4799995 5.2599995,6.9999995 4.7399995,6.9999995 4.7399995,8.9999995z" transform="matrix(1,0,0,-1,16,10)" fill="rgb(255,255,255)" stroke="rgb(0,0,0)" stroke-width="0.0010cm" stroke-linecap="round" stroke-linejoin="round" /><path d="M5.2599995,-5.0000001 L4.7399995,-5.0000001 4.7399995,-3.0000001 5.2599995,-3.0000001 5.2599995,-5.0000001z" transform="matrix(1,0,0,-1,16,10)" fill="rgb(255,255,255)" stroke="rgb(0,0,0)" stroke-width="0.0010cm" stroke-linecap="round" stroke-linejoin="round" /><path d="M-5.2600005,-0.26 L-4.7400005,-0.26 -4.7400005,-1.0000001 -5.2600005,-1.0000001 -5.2600005,-0.26z" transform="matrix(1,0,0,-1,16,10)" fill="rgb(255,255,255)" stroke="rgb(0,0,0)" stroke-width="0.0010cm" stroke-linecap="round" stroke-linejoin="round" /><path d="M5.2599995,0.26 L6.5200006,0.26 6.5200006,-0.26 5.2599995,-0.26 5.2599995,-1.0000001 4.7399995,-1.0000001 4.7399995,-0.26 4.5200006,-0.26 4.5200006,0.26 4.7399995,0.26 4.7399995,0.9999995 5.2599995,0.9999995 5.2599995,0.26z" transform="matrix(1,0,0,-1,16,10)" fill="rgb(255,255,255)" stroke="rgb(0,0,0)" stroke-width="0.0010cm" stroke-linecap="round" stroke-linejoin="round" /><path d="M-7.4799994,-0.26 L-7.4799994,0.26 -5.4799994,0.26 -5.4799994,-0.26 -7.4799994,-0.26z" transform="matrix(1,0,0,-1,16,10)" fill="rgb(255,255,255)" stroke="rgb(0,0,0)" stroke-width="0.0010cm" stroke-linecap="round" stroke-linejoin="round" /><path d="M-5.2600005,0.26 L-5.2600005,0.9999995 -4.7400005,0.9999995 -4.7400005,0.26 -5.2600005,0.26z" transform="matrix(1,0,0,-1,16,10)" fill="rgb(255,255,255)" stroke="rgb(0,0,0)" stroke-width="0.0010cm" stroke-linecap="round" stroke-linejoin="round" /><path d="M4.7399995,4.9999995 L5.2599995,4.9999995 5.2599995,2.9999995 4.7399995,2.9999995 4.7399995,4.9999995z" transform="matrix(1,0,0,-1,16,10)" fill="rgb(255,255,255)" stroke="rgb(0,0,0)" stroke-width="0.0010cm" stroke-linecap="round" stroke-linejoin="round" /><path d="M-4.7400005,-3.0000001 L-4.7400005,-5.0000001 -5.2600005,-5.0000001 -5.2600005,-3.0000001 -4.7400005,-3.0000001z" transform="matrix(1,0,0,-1,16,10)" fill="rgb(255,255,255)" stroke="rgb(0,0,0)" stroke-width="0.0010cm" stroke-linecap="round" stroke-linejoin="round" /><path d="M0.5200006,-0.26 L0.5200006,0.26 2.5200006,0.26 2.5200006,-0.26 0.5200006,-0.26z" transform="matrix(1,0,0,-1,16,10)" fill="rgb(255,255,255)" stroke="rgb(0,0,0)" stroke-width="0.0010cm" stroke-linecap="round" stroke-linejoin="round" /><path d="M-3.4799994,-0.26 L-3.4799994,0.26 -1.4799994,0.26 -1.4799994,-0.26 -3.4799994,-0.26z" transform="matrix(1,0,0,-1,16,10)" fill="rgb(255,255,255)" stroke="rgb(0,0,0)" stroke-width="0.0010cm" stroke-linecap="round" stroke-linejoin="round" /><path d="M-5.2600005,2.9999995 L-5.2600005,4.9999995 -4.7400005,4.9999995 -4.7400005,2.9999995 -5.2600005,2.9999995z" transform="matrix(1,0,0,-1,16,10)" fill="rgb(255,255,255)" stroke="rgb(0,0,0)" stroke-width="0.0010cm" stroke-linecap="round" stroke-linejoin="round" /><path d="M-4.7400005,-7.0000001 L-4.7400005,-9.0000001 -5.2600005,-9.0000001 -5.2600005,-7.0000001 -4.7400005,-7.0000001z" transform="matrix(1,0,0,-1,16,10)" fill="rgb(255,255,255)" stroke="rgb(0,0,0)" stroke-width="0.0010cm" stroke-linecap="round" stroke-linejoin="round" /><path d="M15,-9 L12.4799993,-9.0000001 12.4799993,-8.4800001 14.4799993,-8.4800001 14.48,-7 15,-7 15,-9z" transform="matrix(1,0,0,-1,16,10)" fill="rgb(255,255,255)" stroke="rgb(0,0,0)" stroke-width="0.0010cm" stroke-linecap="round" stroke-linejoin="round" /><path d="M14.48,5 L15,5 15,3 14.48,3 14.48,5z" transform="matrix(1,0,0,-1,16,10)" fill="rgb(255,255,255)" stroke="rgb(0,0,0)" stroke-width="0.0010cm" stroke-linecap="round" stroke-linejoin="round" /><path d="M14.48,-3 L15,-3 15,-5 14.48,-5 14.48,-3z" transform="matrix(1,0,0,-1,16,10)" fill="rgb(255,255,255)" stroke="rgb(0,0,0)" stroke-width="0.0010cm" stroke-linecap="round" stroke-linejoin="round" /><path d="M-1.0000007,8.4799995 L-3.0000007,8.4799995 -3.0000007,8.9999995 -1.0000007,8.9999995 -1.0000007,8.4799995z" transform="matrix(1,0,0,-1,16,10)" fill="rgb(255,255,255)" stroke="rgb(0,0,0)" stroke-width="0.0010cm" stroke-linecap="round" stroke-linejoin="round" /><path d="M-15,8.4799995 L-15,9 -13.0000007,9 -13.0000007,8.4799995 -15,8.4799995z" transform="matrix(1,0,0,-1,16,10)" fill="rgb(255,255,255)" stroke="rgb(0,0,0)" stroke-width="0.0010cm" stroke-linecap="round" stroke-linejoin="round" /><path d="M2.9999993,8.4799995 L0.9999993,8.4799995 0.9999993,8.9999995 2.9999993,8.9999995 2.9999993,8.4799995z" transform="matrix(1,0,0,-1,16,10)" fill="rgb(255,255,255)" stroke="rgb(0,0,0)" stroke-width="0.0010cm" stroke-linecap="round" stroke-linejoin="round" /><path d="M10.9999993,8.4799995 L8.9999993,8.4799995 8.9999993,8.9999995 10.9999993,8.9999995 10.9999993,8.4799995z" transform="matrix(1,0,0,-1,16,10)" fill="rgb(255,255,255)" stroke="rgb(0,0,0)" stroke-width="0.0010cm" stroke-linecap="round" stroke-linejoin="round" /><path d="M-11.0000007,8.9999995 L-9.0000007,8.9999995 -9.0000007,8.4799995 -11.0000007,8.4799995 -11.0000007,8.9999995z" transform="matrix(1,0,0,-1,16,10)" fill="rgb(255,255,255)" stroke="rgb(0,0,0)" stroke-width="0.0010cm" stroke-linecap="round" stroke-linejoin="round" /><path d="M12.9999993,8.9999995 L14.48,9 15,9 15,7 14.48,7 14.4799993,8.4799995 12.9999993,8.4799995 12.9999993,8.9999995z" transform="matrix(1,0,0,-1,16,10)" fill="rgb(255,255,255)" stroke="rgb(0,0,0)" stroke-width="0.0010cm" stroke-linecap="round" stroke-linejoin="round" /><path d="M-11.4800001,8.4799996 L-11.4800001,6.9999997 -12.0000001,6.9999997 -12.0000001,8.4799996 -11.4800001,8.4799996z" transform="matrix(1,0,0,-1,16,10)" fill="rgb(255,255,255)" stroke="rgb(0,0,0)" stroke-width="0.0010cm" stroke-linecap="round" stroke-linejoin="round" /><path d="M-12.0000001,-3.0000003 L-11.4800001,-3.0000003 -11.4800001,-5.0000003 -12.0000001,-5.0000003 -12.0000001,-3.0000003z" transform="matrix(1,0,0,-1,16,10)" fill="rgb(255,255,255)" stroke="rgb(0,0,0)" stroke-width="0.0010cm" stroke-linecap="round" stroke-linejoin="round" /><path d="M-12.0000001,4.9999997 L-11.4800001,4.9999997 -11.4800001,2.9999997 -12.0000001,2.9999997 -12.0000001,4.9999997z" transform="matrix(1,0,0,-1,16,10)" fill="rgb(255,255,255)" stroke="rgb(0,0,0)" stroke-width="0.0010cm" stroke-linecap="round" stroke-linejoin="round" /><path d="M-11.4799994,0.26 L-9.4799994,0.26 -9.4799994,-0.26 -11.4799994,-0.26 -11.4800001,-1.0000003 -12.0000001,-1.0000003 -12.0000001,0.9999997 -11.4800001,0.9999997 -11.4799994,0.26z" transform="matrix(1,0,0,-1,16,10)" fill="rgb(255,255,255)" stroke="rgb(0,0,0)" stroke-width="0.0010cm" stroke-linecap="round" stroke-linejoin="round" /><path d="M-1.5200007,-8.4800001 L-1.5200007,-9.0000001 -3.5200007,-9.0000001 -3.5200007,-8.4800001 -1.5200007,-8.4800001z" transform="matrix(1,0,0,-1,16,10)" fill="rgb(255,255,255)" stroke="rgb(0,0,0)" stroke-width="0.0010cm" stroke-linecap="round" stroke-linejoin="round" /><path d="M-13.5200007,-8.4800001 L-13.5200007,-9.0000001 -15.0000001,-9.0000001 -15.0000001,-8.4800001 -13.5200007,-8.4800001z" transform="matrix(1,0,0,-1,16,10)" fill="rgb(255,255,255)" stroke="rgb(0,0,0)" stroke-width="0.0010cm" stroke-linecap="round" stroke-linejoin="round" /><path d="M2.4799993,-8.4800001 L2.4799993,-9.0000001 0.4799993,-9.0000001 0.4799993,-8.4800001 2.4799993,-8.4800001z" transform="matrix(1,0,0,-1,16,10)" fill="rgb(255,255,255)" stroke="rgb(0,0,0)" stroke-width="0.0010cm" stroke-linecap="round" stroke-linejoin="round" /><path d="M10.4799993,-8.4800001 L10.4799993,-9.0000001 8.4799993,-9.0000001 8.4799993,-8.4800001 10.4799993,-8.4800001z" transform="matrix(1,0,0,-1,16,10)" fill="rgb(255,255,255)" stroke="rgb(0,0,0)" stroke-width="0.0010cm" stroke-linecap="round" stroke-linejoin="round" /><path d="M-5.5200007,-8.4800001 L-5.5200007,-9.0000001 -7.5200007,-9.0000001 -7.5200007,-8.4800001 -5.5200007,-8.4800001z" transform="matrix(1,0,0,-1,16,10)" fill="rgb(255,255,255)" stroke="rgb(0,0,0)" stroke-width="0.0010cm" stroke-linecap="round" stroke-linejoin="round" /><path d="M6.4799993,-9.0000001 L4.7399995,-9.0000001 4.7399995,-7.0000001 5.2599995,-7.0000001 5.2599995,-8.4800001 6.4799993,-8.4800001 6.4799993,-9.0000001z" transform="matrix(1,0,0,-1,16,10)" fill="rgb(255,255,255)" stroke="rgb(0,0,0)" stroke-width="0.0010cm" stroke-linecap="round" stroke-linejoin="round" /><path d="M-11.5200007,-9.0000001 L-11.5200007,-8.48 -12.0000001,-8.48 -12.0000001,-7.0000003 -11.4800001,-7.0000003 -11.4800001,-8.48 -9.5200007,-8.4800001 -9.5200007,-9.0000001 -11.5200007,-9.0000001z" transform="matrix(1,0,0,-1,16,10)" fill="rgb(255,255,255)" stroke="rgb(0,0,0)" stroke-width="0.0010cm" stroke-linecap="round" stroke-linejoin="round" /></svg>