<?xml version="1.0" encoding="utf-8"?>
<!-- Generator: Fusion 360, Shaper Origin Export Add-In, Version 1.8.0  -->
<svg xmlns="http://www.w3.org/2000/svg" xmlns:xlink="http://www.w3.org/1999/xlink" xmlns:shaper="http://www.shapertools.com/namespaces/shaper" shaper:fusionaddin="version:1.8.0" width="9.04cm" height="18cm" version="1.1" x="0cm" y="0cm" viewBox="0 0 9.04 18" enable-background="new 0 0 9.04 18" xml:space="preserve"><path d="M1.7500001,0.2600002 L5.7499999,0.2600002 6.2699999,0.2599999 6.2699999,1 5.7499999,1 5.7499999,3 6.2699999,3 6.2699999,5 5.7499999,5 5.7499999,7 6.2699999,7 6.2699999,9 5.7499999,9 3.7499999,9 3.7499999,8.48 1.7499999,8.48 1.7499999,9 -0.2500001,9 -0.2500001,8.48 -2.2500001,8.48 -2.2500001,6.48 -2.7700001,6.48 -2.7700001,4.48 -2.2500001,4.48 -2.2500001,2.48 -2.7700001,2.48 -2.7700001,0.48 -2.2500001,0.48 -2.2500001,-0.4799996 -2.7700001,-0.4799996 -2.7700001,-2.4799996 -2.2500001,-2.4799996 -2.2500001,-4.4799996 -2.7700001,-4.4799996 -2.7700001,-6.4799996 -2.2500001,-6.4799996 -2.2500001,-8.48 -0.2500001,-8.48 -0.2500001,-9 1.7499999,-9 1.7499999,-8.48 3.7499999,-8.48 3.7499999,-9 5.7499999,-9 6.2699999,-8.9999996 6.2699999,-6.9999996 5.7499999,-6.9999996 5.7499999,-4.9999996 6.2699999,-4.9999996 6.2699999,-2.9999996 5.7499999,-2.9999996 5.7499999,-0.9999996 6.2699999,-0.9999996 6.2699999,-0.2600001 5.7499999,-0.2599998 1.7500001,-0.2599998 1.7500001,0.2600002z" transform="matrix(1,0,0,-1,2.7700001,9)" fill="rgb(0,0,0)" stroke-linecap="round" stroke-linejoin="round" /><path d="M-1.7500001,5.77 L5.2499999,5.77 5.2499999,2.97 -1.7500001,2.97 -1.7500001,5.77z" transform="matrix(1,0,0,-1,2.7700001,9)" fill="rgb(255,255,255)" stroke="rgb(0,0,0)" stroke-width="0.0010cm" stroke-linecap="round" stroke-linejoin="round" /><path d="M-1.7500001,-2.97 L5.2499999,-2.97 5.2499999,-5.77 -1.7500001,-5.77 -1.7500001,-2.97z" transform="matrix(1,0,0,-1,2.7700001,9)" fill="rgb(255,255,255)" stroke="rgb(0,0,0)" stroke-width="0.0010cm" stroke-linecap="round" stroke-linejoin="round" /></svg>