<?xml version="1.0" encoding="utf-8"?>
<!-- Generator: Fusion 360, Shaper Origin Export Add-In, Version 1.8.0  -->
<svg xmlns="http://www.w3.org/2000/svg" xmlns:xlink="http://www.w3.org/1999/xlink" xmlns:shaper="http://www.shapertools.com/namespaces/shaper" shaper:fusionaddin="version:1.8.0" width="9.04cm" height="18cm" version="1.1" x="0cm" y="0cm" viewBox="0 0 9.04 18" enable-background="new 0 0 9.04 18" xml:space="preserve"><path d="M-5,0.26 L-1,0.26 -1,-0.26 -5,-0.26 -5.52,-0.2599999 -5.52,-1 -5,-1 -5,-3 -5.52,-3 -5.52,-5 -5,-5 -5,-7 -5.52,-7 -5.52,-9 -5,-9 -3,-9 -3,-8.48 -1,-8.48 -1,-9 1,-9 1,-8.48 3,-8.48 3,-6.48 3.52,-6.48 3.52,-4.48 3,-4.48 3,-2.48 3.52,-2.48 3.52,-0.48 3,-0.48 3,0.4799996 3.52,0.4799996 3.52,2.4799996 3,2.4799996 3,4.4799996 3.52,4.4799996 3.52,6.4799996 3,6.4799996 3,8.48 1,8.48 1,9 -1,9 -1,8.48 -3,8.48 -3,9 -5,9 -5.52,8.9999996 -5.52,6.9999996 -5,6.9999996 -5,4.9999996 -5.52,4.9999996 -5.52,2.9999996 -5,2.9999996 -5,0.9999996 -5.52,0.9999996 -5.52,0.2600001 -5,0.26z" transform="matrix(1,0,0,-1,5.52,9)" fill="rgb(0,0,0)" stroke-linecap="round" stroke-linejoin="round" /></svg>