<?xml version="1.0" encoding="utf-8"?>
<!-- Generator: Fusion 360, Shaper Origin Export Add-In, Version 1.8.0  -->
<svg xmlns="http://www.w3.org/2000/svg" xmlns:xlink="http://www.w3.org/1999/xlink" xmlns:shaper="http://www.shapertools.com/namespaces/shaper" shaper:fusionaddin="version:1.8.0" width="29.9999993cm" height="18.56cm" version="1.1" x="0cm" y="0cm" viewBox="0 0 29.9999993 18.56" enable-background="new 0 0 29.9999993 18.56" xml:space="preserve"><path d="M-14.4799996,-1.76 L-5.7599998,-1.7600004 -5.7599998,-7.74 -14.4799996,-7.74 -14.4799996,-8.24 -12.9799996,-8.24 -12.9799996,-8.76 -11.4799997,-8.76 -11.4799997,-9.28 -8.4799998,-9.28 -8.4799998,-8.76 -6.9799997,-8.76 -6.9799997,-8.2399996 -4.9799997,-8.2399996 -4.9799997,-8.7599996 -5.4799998,-8.76 -5.4799998,-9.28 -2.4799999,-9.28 -2.4799999,-8.76 -2.9799998,-8.7599996 -2.9799998,-8.2399996 -0.9799998,-8.2399996 -0.9799998,-8.76 1.0200002,-8.7599996 1.0200002,-8.2399996 3.0200001,-8.24 3.0200001,-8.7599996 2.48,-8.76 2.48,-9.28 5.4799999,-9.28 5.4799999,-8.76 5.0200001,-8.7599996 5.0200001,-8.2399996 7.0200001,-8.2399996 7.0200001,-8.7599996 8.4799999,-8.76 8.4799999,-9.28 11.4799996,-9.28 11.4799996,-8.76 13.02,-8.7599996 13.02,-8.2399996 14.4799996,-8.2399996 14.4799996,-5.76 14.9999996,-5.76 14.9999996,-3.76 14.4799996,-3.76 14.4799996,-1.76 14.9999996,-1.76 14.9999996,0.24 12.9999996,0.24 12.9999996,0.76 14.9999996,0.76 14.9999996,9.28 13.0000004,9.28 13.0000004,8.76 11.0000004,8.76 11.0000004,9.28 9.0000004,9.28 9.0000004,8.76 7.0000004,8.76 7.0000004,9.28 5.2600004,9.28 5.2599996,8.76 5.2599996,6.76 4.7399996,6.76 4.7399996,8.76 3.0000004,8.76 3.0000004,9.28 1.0000004,9.28 1.0000004,8.76 -0.9999996,8.76 -0.9999996,9.28 -2.9999996,9.28 -2.9999996,8.76 -4.7400004,8.76 -4.7400004,6.76 -5.2600004,6.76 -5.2600004,8.76 -5.2599996,9.28 -6.9999996,9.28 -6.9999996,8.76 -8.9999996,8.76 -8.9999996,9.28 -10.9999996,9.28 -10.9999996,8.76 -12.9999996,8.76 -12.9999996,9.28 -14.4799996,9.28 -14.4799996,8.76 -14.9999996,8.76 -14.9999996,6.76 -14.4799996,6.76 -14.4799996,4.76 -14.9999996,4.76 -14.9999996,2.76 -14.4799996,2.76 -14.4799996,0.76 -13.0000004,0.76 -13.0000004,0.24 -14.9999996,0.24 -14.9999996,-1.76 -14.4799996,-1.76z" transform="matrix(1,0,0,-1,14.9999996,9.28)" fill="rgb(0,0,0)" stroke-linecap="round" stroke-linejoin="round" /><path d="M9.02,-8.2399996 L11.02,-8.2399996 11.02,-8.7599996 9.02,-8.7599996 9.02,-8.2399996z" transform="matrix(1,0,0,-1,14.9999996,9.28)" fill="rgb(255,255,255)" stroke="rgb(0,0,0)" stroke-width="0.0010cm" stroke-linecap="round" stroke-linejoin="round" /><path d="M-8.9799996,-8.2399996 L-8.9799996,-8.76 -10.9799996,-8.76 -10.9799996,-8.24 -8.9799996,-8.2399996z" transform="matrix(1,0,0,-1,14.9999996,9.28)" fill="rgb(255,255,255)" stroke="rgb(0,0,0)" stroke-width="0.0010cm" stroke-linecap="round" stroke-linejoin="round" /><path d="M4.7399999,-3.76 L5.2599999,-3.76 5.2599999,-5.76 4.7399999,-5.76 4.7399999,-3.76z" transform="matrix(1,0,0,-1,14.9999996,9.28)" fill="rgb(255,255,255)" stroke="rgb(0,0,0)" stroke-width="0.0010cm" stroke-linecap="round" stroke-linejoin="round" /><path d="M-4.7399998,-5.7599998 L-5.2599998,-5.7599998 -5.2599998,-3.7599998 -4.7399998,-3.7599998 -4.7399998,-5.7599998z" transform="matrix(1,0,0,-1,14.9999996,9.28)" fill="rgb(255,255,255)" stroke="rgb(0,0,0)" stroke-width="0.0010cm" stroke-linecap="round" stroke-linejoin="round" /><path d="M-4.7400004,2.76 L-5.2600004,2.76 -5.2600004,4.76 -4.7400004,4.76 -4.7400004,2.76z" transform="matrix(1,0,0,-1,14.9999996,9.28)" fill="rgb(255,255,255)" stroke="rgb(0,0,0)" stroke-width="0.0010cm" stroke-linecap="round" stroke-linejoin="round" /><path d="M4.7399996,4.76 L5.2599996,4.76 5.2599996,2.76 4.7399996,2.76 4.7399996,4.76z" transform="matrix(1,0,0,-1,14.9999996,9.28)" fill="rgb(255,255,255)" stroke="rgb(0,0,0)" stroke-width="0.0010cm" stroke-linecap="round" stroke-linejoin="round" /><path d="M5.2599999,0.24 L5.2599999,-1.76 4.7399999,-1.76 4.7399999,0.24 4.9999996,0.24 4.9999996,0.76 6.9999996,0.76 6.9999996,0.24 5.2599999,0.24z" transform="matrix(1,0,0,-1,14.9999996,9.28)" fill="rgb(255,255,255)" stroke="rgb(0,0,0)" stroke-width="0.0010cm" stroke-linecap="round" stroke-linejoin="round" /><path d="M8.9999996,0.24 L8.9999996,0.76 10.9999996,0.76 10.9999996,0.24 8.9999996,0.24z" transform="matrix(1,0,0,-1,14.9999996,9.28)" fill="rgb(255,255,255)" stroke="rgb(0,0,0)" stroke-width="0.0010cm" stroke-linecap="round" stroke-linejoin="round" /><path d="M0.9999996,0.24 L0.9999996,0.76 2.9999996,0.76 2.9999996,0.24 0.9999996,0.24z" transform="matrix(1,0,0,-1,14.9999996,9.28)" fill="rgb(255,255,255)" stroke="rgb(0,0,0)" stroke-width="0.0010cm" stroke-linecap="round" stroke-linejoin="round" /><path d="M-11.0000004,0.24 L-11.0000004,0.76 -9.0000004,0.76 -9.0000004,0.24 -11.0000004,0.24z" transform="matrix(1,0,0,-1,14.9999996,9.28)" fill="rgb(255,255,255)" stroke="rgb(0,0,0)" stroke-width="0.0010cm" stroke-linecap="round" stroke-linejoin="round" /><path d="M-3.0000004,0.24 L-3.0000004,0.76 -1.0000004,0.76 -1.0000004,0.24 -3.0000004,0.24z" transform="matrix(1,0,0,-1,14.9999996,9.28)" fill="rgb(255,255,255)" stroke="rgb(0,0,0)" stroke-width="0.0010cm" stroke-linecap="round" stroke-linejoin="round" /><path d="M-5.0000004,0.24 L-4.7399998,0.2400002 -4.7399998,-1.7599998 -5.2599998,-1.7599998 -5.2599998,0.2400002 -7.0000004,0.24 -7.0000004,0.76 -5.0000004,0.76 -5.0000004,0.24z" transform="matrix(1,0,0,-1,14.9999996,9.28)" fill="rgb(255,255,255)" stroke="rgb(0,0,0)" stroke-width="0.0010cm" stroke-linecap="round" stroke-linejoin="round" /><path d="M0.3399996,2.26 L0.3399996,6.4599999 2.7399996,6.4599999 2.7399996,2.26 0.3399996,2.26z" transform="matrix(1,0,0,-1,14.9999996,9.28)" fill="rgb(255,255,255)" stroke="rgb(0,0,0)" stroke-width="0.0010cm" stroke-linecap="round" stroke-linejoin="round" /><path d="M-2.0000001,-7.06 L-2.0000001,-2.06 1.9999999,-2.06 1.9999999,-7.06 -2.0000001,-7.06z" transform="matrix(1,0,0,-1,14.9999996,9.28)" fill="rgb(255,255,255)" stroke="rgb(0,0,0)" stroke-width="0.0010cm" stroke-linecap="round" stroke-linejoin="round" /><path d="M-2.7400004,2.26 L-2.7400004,6.4599999 -0.3400004,6.4599999 -0.3400004,2.26 -2.7400004,2.26z" transform="matrix(1,0,0,-1,14.9999996,9.28)" fill="rgb(255,255,255)" stroke="rgb(0,0,0)" stroke-width="0.0010cm" stroke-linecap="round" stroke-linejoin="round" /><path d="M-11.3950004,1.76 L-11.3950004,8.26 -8.3450004,8.26 -8.3450004,1.76 -11.3950004,1.76z" transform="matrix(1,0,0,-1,14.9999996,9.28)" fill="rgb(255,255,255)" stroke="rgb(0,0,0)" stroke-width="0.0010cm" stroke-linecap="round" stroke-linejoin="round" /></svg>