<?xml version="1.0" encoding="utf-8"?>
<!-- Generator: Fusion 360, Shaper Origin Export Add-In, Version 1.8.0  -->
<svg xmlns="http://www.w3.org/2000/svg" xmlns:xlink="http://www.w3.org/1999/xlink" xmlns:shaper="http://www.shapertools.com/namespaces/shaper" shaper:fusionaddin="version:1.8.0" width="9.04cm" height="19.7400003cm" version="1.1" x="0cm" y="0cm" viewBox="0 0 9.04 19.7400003" enable-background="new 0 0 9.04 19.7400003" xml:space="preserve"><path d="M4,2.2600001 L-3.5,2.2600001 -3.5,8.2600001 4,8.2600001 4,7.9100008 4.52,7.9100008 4.52,9.8700001 -4,9.8700001 -4,7.8699994 -4.52,7.8699994 -4.52,5.8699994 -4,5.8699994 -4,3.8699994 -4.52,3.8699994 -4.52,1.8699994 -4,1.8699994 -3.9999998,0.6500001 0.0000002,0.6500001 0.0000002,0.1300001 -3.9999998,0.1300001 -4,-1.3499999 -4.52,-1.3499999 -4.52,-3.3499999 -4,-3.3499999 -4,-5.3499999 -4.52,-5.3499999 -4.52,-7.3499999 -4,-7.3499999 -3.9999998,-9.3499999 0.0000002,-9.3499999 0.0000002,-9.8699999 4,-9.8700001 4,-8.0899992 4.52,-8.0899992 4.52,-6.0899992 4,-6.0899992 4,-4.0899992 4.52,-4.0899992 4.52,-2.0899992 4,-2.0899992 4,-0.0899992 4.52,-0.0899992 4.52,1.9100008 4,1.9100008 4,2.2600001z" transform="matrix(1,0,0,-1,4.52,9.8700001)" fill="rgb(0,0,0)" stroke-linecap="round" stroke-linejoin="round" /></svg>