<?xml version="1.0" encoding="utf-8"?>
<!-- Generator: Fusion 360, Shaper Origin Export Add-In, Version 1.8.0  -->
<svg xmlns="http://www.w3.org/2000/svg" xmlns:xlink="http://www.w3.org/1999/xlink" xmlns:shaper="http://www.shapertools.com/namespaces/shaper" shaper:fusionaddin="version:1.8.0" width="18cm" height="30cm" version="1.1" x="0cm" y="0cm" viewBox="0 0 18 30" enable-background="new 0 0 18 30" xml:space="preserve"><path d="M-8.4799996,-1.3599995 L-6.9799996,-1.3599995 -6.9799996,-1.8799995 -8.4799996,-1.8799995 -8.48,-1.62 -9,-1.62 -9,-3.62 -8.48,-3.62 -8.48,-5.62 -9,-5.62 -9,-7.62 -8.48,-7.62 -8.48,-9.62 -9,-9.62 -9,-11.0999993 -9,-11.62 -7,-11.62 -7,-11.1 -5,-11.1 -5,-11.62 -3,-11.62 -3,-11.1 -1,-11.1 -1,-11.62 1,-11.62 1,-11.1 3,-11.1 3,-11.62 5,-11.62 5,-11.1 7,-11.1 7,-11.62 9,-11.62 9,-9.6199993 8.48,-9.6199993 8.48,-7.6199993 9,-7.6199993 9,-5.6199993 8.48,-5.6199993 8.48,-3.6199993 9,-3.6199993 9,-1.6199993 8.48,-1.6199993 8.4800001,-1.8799995 6.9800001,-1.8799995 6.9800001,-1.3599995 8.4800001,-1.3599995 8.48,0.3800007 9,0.3800007 9,2.3800007 8.48,2.3800007 8.48,4.3800001 9,4.3800001 9,6.3800001 8.48,6.3800001 8.4800001,8.1200003 6.9800001,8.1200003 6.9800001,8.6400003 8.4800001,8.6400003 8.48,8.3800001 9,8.3800001 9,10.3800001 8.48,10.3800001 8.48,12.3800001 9,12.3800001 9,14.3800001 8.48,14.3800001 8.48,14.8600001 7.0000004,14.8600001 7.0000004,15.3800001 8.4800001,15.3800001 8.48,16.3800001 9,16.3800001 9,18.38 7,18.38 7,17.86 5,17.86 5,18.38 3,18.38 3,17.86 1,17.86 1,18.38 -1,18.38 -1,17.86 -3,17.86 -3,18.38 -5,18.38 -5,17.86 -7,17.86 -7,18.38 -9,18.38 -9,16.38 -8.48,16.38 -8.48,15.3800001 -6.9999996,15.3800001 -6.9999996,14.8600001 -8.48,14.8600001 -8.48,14.38 -9,14.38 -9,12.38 -8.48,12.38 -8.48,10.38 -9,10.38 -9,8.38 -8.48,8.38 -8.4799996,8.6400003 -6.9799996,8.6400003 -6.9799996,8.1200003 -8.4799996,8.1200003 -8.48,6.38 -9,6.38 -9,4.38 -8.48,4.38 -8.48,2.38 -9,2.38 -9,0.38 -8.48,0.38 -8.4799996,-1.3599995z" transform="matrix(1,0,0,-1,9,18.38)" fill="rgb(0,0,0)" stroke-linecap="round" stroke-linejoin="round" /><path d="M3.0000004,14.8600001 L3.0000004,15.3800001 5.0000004,15.3800001 5.0000004,14.8600001 3.0000004,14.8600001z" transform="matrix(1,0,0,-1,9,18.38)" fill="rgb(255,255,255)" stroke="rgb(0,0,0)" stroke-width="0.0010cm" stroke-linecap="round" stroke-linejoin="round" /><path d="M-4.9999996,14.8600001 L-4.9999996,15.3800001 -2.9999996,15.3800001 -2.9999996,14.8600001 -4.9999996,14.8600001z" transform="matrix(1,0,0,-1,9,18.38)" fill="rgb(255,255,255)" stroke="rgb(0,0,0)" stroke-width="0.0010cm" stroke-linecap="round" stroke-linejoin="round" /><path d="M-0.9999996,14.8600001 L-0.9999996,15.3800001 1.0000004,15.3800001 1.0000004,14.8600001 -0.9999996,14.8600001z" transform="matrix(1,0,0,-1,9,18.38)" fill="rgb(255,255,255)" stroke="rgb(0,0,0)" stroke-width="0.0010cm" stroke-linecap="round" stroke-linejoin="round" /><path d="M6.4800001,-1.8799997 L4.4800001,-1.8799997 4.4800001,-1.3599997 6.4800001,-1.3599997 6.4800001,-1.8799997z" transform="matrix(1,0,0,-1,9,18.38)" fill="rgb(255,255,255)" stroke="rgb(0,0,0)" stroke-width="0.0010cm" stroke-linecap="round" stroke-linejoin="round" /><path d="M-0.2599997,-5.0999993 L-0.2599997,-3.0999993 0.2600003,-3.0999993 0.2600003,-5.0999993 -0.2599997,-5.0999993z" transform="matrix(1,0,0,-1,9,18.38)" fill="rgb(255,255,255)" stroke="rgb(0,0,0)" stroke-width="0.0010cm" stroke-linecap="round" stroke-linejoin="round" /><path d="M6.4800001,8.6400003 L6.4800001,8.1200003 4.4800001,8.1200003 4.4800001,8.6400003 6.4800001,8.6400003z" transform="matrix(1,0,0,-1,9,18.38)" fill="rgb(255,255,255)" stroke="rgb(0,0,0)" stroke-width="0.0010cm" stroke-linecap="round" stroke-linejoin="round" /><path d="M-6.4799996,8.6400003 L-4.4799996,8.6400003 -4.4799996,8.1200003 -6.4799996,8.1200003 -6.4799996,8.6400003z" transform="matrix(1,0,0,-1,9,18.38)" fill="rgb(255,255,255)" stroke="rgb(0,0,0)" stroke-width="0.0010cm" stroke-linecap="round" stroke-linejoin="round" /><path d="M-0.26,6.12 L0.26,6.12 0.26,4.12 -0.26,4.12 -0.26,6.12z" transform="matrix(1,0,0,-1,9,18.38)" fill="rgb(255,255,255)" stroke="rgb(0,0,0)" stroke-width="0.0010cm" stroke-linecap="round" stroke-linejoin="round" /><path d="M-6.4799996,-1.3599997 L-4.4799996,-1.3599997 -4.4799996,-1.8799997 -6.4799996,-1.8799997 -6.4799996,-1.3599997z" transform="matrix(1,0,0,-1,9,18.38)" fill="rgb(255,255,255)" stroke="rgb(0,0,0)" stroke-width="0.0010cm" stroke-linecap="round" stroke-linejoin="round" /><path d="M0.4800001,-1.8799997 L0.4800001,-1.3599997 2.4800001,-1.3599997 2.4800001,-1.8799997 0.4800001,-1.8799997z" transform="matrix(1,0,0,-1,9,18.38)" fill="rgb(255,255,255)" stroke="rgb(0,0,0)" stroke-width="0.0010cm" stroke-linecap="round" stroke-linejoin="round" /><path d="M-0.2599997,-9.0999993 L-0.2599997,-7.0999993 0.2600003,-7.0999993 0.2600003,-9.0999993 -0.2599997,-9.0999993z" transform="matrix(1,0,0,-1,9,18.38)" fill="rgb(255,255,255)" stroke="rgb(0,0,0)" stroke-width="0.0010cm" stroke-linecap="round" stroke-linejoin="round" /><path d="M0.4800001,8.6400003 L2.4800001,8.6400003 2.4800001,8.1200003 0.4800001,8.1200003 0.4800001,8.6400003z" transform="matrix(1,0,0,-1,9,18.38)" fill="rgb(255,255,255)" stroke="rgb(0,0,0)" stroke-width="0.0010cm" stroke-linecap="round" stroke-linejoin="round" /><path d="M-0.4799996,8.6400003 L-0.4799996,8.1200003 -2.4799996,8.1200003 -2.4799996,8.6400003 -0.4799996,8.6400003z" transform="matrix(1,0,0,-1,9,18.38)" fill="rgb(255,255,255)" stroke="rgb(0,0,0)" stroke-width="0.0010cm" stroke-linecap="round" stroke-linejoin="round" /><path d="M-0.26,2.12 L0.26,2.12 0.26,0.12 -0.26,0.12 -0.26,2.12z" transform="matrix(1,0,0,-1,9,18.38)" fill="rgb(255,255,255)" stroke="rgb(0,0,0)" stroke-width="0.0010cm" stroke-linecap="round" stroke-linejoin="round" /><path d="M-0.4799996,-1.8799997 L-2.4799996,-1.8799997 -2.4799996,-1.3599997 -0.4799996,-1.3599997 -0.4799996,-1.8799997z" transform="matrix(1,0,0,-1,9,18.38)" fill="rgb(255,255,255)" stroke="rgb(0,0,0)" stroke-width="0.0010cm" stroke-linecap="round" stroke-linejoin="round" /><path d="M2.65,16.9800001 L2.65,15.6800001 -2.65,15.6800001 -2.65,16.9800001 2.65,16.9800001z" transform="matrix(1,0,0,-1,9,18.38)" fill="rgb(255,255,255)" stroke="rgb(0,0,0)" stroke-width="0.0010cm" stroke-linecap="round" stroke-linejoin="round" /><path d="M0.48,13.6200001 L7.48,13.6200001 7.48,9.6200001 0.48,9.6200001 0.48,13.6200001z" transform="matrix(1,0,0,-1,9,18.38)" fill="rgb(255,255,255)" stroke="rgb(0,0,0)" stroke-width="0.0010cm" stroke-linecap="round" stroke-linejoin="round" /><path d="M0.2600003,-10.5999993 L-0.2599997,-10.5999993 -0.2599997,-9.5999993 0.2600003,-9.5999993 0.2600003,-10.5999993z" transform="matrix(1,0,0,-1,9,18.38)" fill="rgb(255,255,255)" stroke="rgb(0,0,0)" stroke-width="0.0010cm" stroke-linecap="round" stroke-linejoin="round" /><path d="M0.2600003,7.62 L0.2600003,6.62 -0.2599997,6.62 -0.2599997,7.62 0.2600003,7.62z" transform="matrix(1,0,0,-1,9,18.38)" fill="rgb(255,255,255)" stroke="rgb(0,0,0)" stroke-width="0.0010cm" stroke-linecap="round" stroke-linejoin="round" /><path d="M2.9800001,-1.8799995 L2.9800001,-1.3599995 3.9800001,-1.3599995 3.9800001,-1.8799995 2.9800001,-1.8799995z" transform="matrix(1,0,0,-1,9,18.38)" fill="rgb(255,255,255)" stroke="rgb(0,0,0)" stroke-width="0.0010cm" stroke-linecap="round" stroke-linejoin="round" /><path d="M0.2600003,-6.5999993 L-0.2599997,-6.5999993 -0.2599997,-5.5999993 0.2600003,-5.5999993 0.2600003,-6.5999993z" transform="matrix(1,0,0,-1,9,18.38)" fill="rgb(255,255,255)" stroke="rgb(0,0,0)" stroke-width="0.0010cm" stroke-linecap="round" stroke-linejoin="round" /><path d="M-2.9799996,-1.8799995 L-3.9799996,-1.8799995 -3.9799996,-1.3599995 -2.9799996,-1.3599995 -2.9799996,-1.8799995z" transform="matrix(1,0,0,-1,9,18.38)" fill="rgb(255,255,255)" stroke="rgb(0,0,0)" stroke-width="0.0010cm" stroke-linecap="round" stroke-linejoin="round" /><path d="M0.2600003,2.62 L-0.2599997,2.62 -0.2599997,3.62 0.2600003,3.62 0.2600003,2.62z" transform="matrix(1,0,0,-1,9,18.38)" fill="rgb(255,255,255)" stroke="rgb(0,0,0)" stroke-width="0.0010cm" stroke-linecap="round" stroke-linejoin="round" /><path d="M2.9800001,8.1200003 L2.9800001,8.6400003 3.9800001,8.6400003 3.9800001,8.1200003 2.9800001,8.1200003z" transform="matrix(1,0,0,-1,9,18.38)" fill="rgb(255,255,255)" stroke="rgb(0,0,0)" stroke-width="0.0010cm" stroke-linecap="round" stroke-linejoin="round" /><path d="M-2.9799996,8.1200003 L-3.9799996,8.1200003 -3.9799996,8.6400003 -2.9799996,8.6400003 -2.9799996,8.1200003z" transform="matrix(1,0,0,-1,9,18.38)" fill="rgb(255,255,255)" stroke="rgb(0,0,0)" stroke-width="0.0010cm" stroke-linecap="round" stroke-linejoin="round" /><path d="M0.2600003,-2.49 L-0.2599997,-2.49 -0.2599997,-0.49 0.2600003,-0.49 0.2600003,-2.49z" transform="matrix(1,0,0,-1,9,18.38)" fill="rgb(255,255,255)" stroke="rgb(0,0,0)" stroke-width="0.0010cm" stroke-linecap="round" stroke-linejoin="round" /></svg>