<?xml version="1.0" encoding="utf-8"?>
<!-- Generator: Fusion 360, Shaper Origin Export Add-In, Version 1.8.0  -->
<svg xmlns="http://www.w3.org/2000/svg" xmlns:xlink="http://www.w3.org/1999/xlink" xmlns:shaper="http://www.shapertools.com/namespaces/shaper" shaper:fusionaddin="version:1.8.0" width="21.1599996cm" height="30cm" version="1.1" x="0cm" y="0cm" viewBox="0 0 21.1599996 30" enable-background="new 0 0 21.1599996 30" xml:space="preserve"><path d="M10.0599998,12.0399999 L10.5799998,12.0399999 10.5799998,13.96 8.5799998,13.96 8.5799998,14.48 6.5799998,14.48 6.5799998,13.96 4.5799998,13.96 4.5799998,14.48 3.5799998,14.48 3.5799998,15 1.5799998,15 1.5799998,14.48 -1.5799998,14.48 -1.5799998,15 -3.5799998,15 -3.5799998,14.48 -4.5799998,14.4799999 -4.5799998,13.9599999 -6.5799998,13.9599999 -6.5799998,14.4799999 -8.5799998,14.4799999 -8.5799998,13.9599999 -10.5799998,13.9599999 -10.5799998,11.9599999 -10.0599998,11.9599999 -10.0599998,9.9599999 -10.5799998,9.9599999 -10.5799998,7.9599999 -10.0599998,7.9599999 -10.0599998,5.9599999 -10.5799998,5.9599999 -10.5799998,3.9599999 -10.0599998,3.9599999 -10.0599998,1.9599999 -10.5799998,1.9599999 -10.5799998,-0.0400001 -10.0599998,-0.0400001 -10.0599998,-1.9600001 -10.5799998,-1.9600001 -10.5799998,-3.9600001 -10.0599998,-3.9600001 -10.0599998,-5.9600001 -10.5799998,-5.9600001 -10.5799998,-7.9600001 -10.0599998,-7.9600001 -10.0599998,-9.9600001 -10.5799998,-9.9600001 -10.5799998,-11.9600001 -10.0599998,-11.9600001 -10.0599998,-13.9600001 -8.5799998,-13.9600001 -8.5799998,-14.4800001 -6.5799998,-14.4800001 -6.5799998,-13.9600001 -4.5799998,-13.9600001 -4.5799998,-14.4800001 -3.5799998,-14.48 -3.5799998,-15 -1.5799998,-15 -1.5799998,-14.48 1.5799998,-14.48 1.5799998,-15 3.5799998,-15 3.5799998,-14.48 4.5799998,-14.4800001 4.5799998,-13.9600001 6.5799998,-13.9600001 6.5799998,-14.4800001 8.5799998,-14.4800001 8.5799998,-13.9600001 10.0599998,-13.9600001 10.0599998,-11.9600001 10.5799998,-11.9600001 10.5799998,-9.9600001 10.0599998,-9.9600001 10.0599998,-7.9600001 10.5799998,-7.9600001 10.5799998,-5.9600001 10.0599998,-5.9600001 10.0599998,-3.9600001 10.5799998,-3.9600001 10.5799998,-1.9600001 10.0599998,-1.9600001 10.0599998,0.0399999 10.5799998,0.0399999 10.5799998,2.0399999 10.0599998,2.0399999 10.0599998,4.0399999 10.5799998,4.0399999 10.5799998,6.0399999 10.0599998,6.0399999 10.0599998,8.0399999 10.5799998,8.0399999 10.5799998,10.0399999 10.0599998,10.0399999 10.0599998,12.0399999z" transform="matrix(1,0,0,-1,10.5799998,15)" fill="rgb(0,0,0)" stroke-linecap="round" stroke-linejoin="round" /><path d="M8.911497,5.4799995 L9.3999998,5.4799995 9.3999998,2.4799995 8.911497,2.4799995 8.911497,5.4799995z" transform="matrix(1,0,0,-1,10.5799998,15)" fill="rgb(255,255,255)" stroke="rgb(0,0,0)" stroke-width="0.0010cm" stroke-linecap="round" stroke-linejoin="round" /><path d="M9.3999998,-2.4774377 L9.3999998,-5.4770563 8.911497,-5.4770563 8.911497,-2.4774377 9.3999998,-2.4774377z" transform="matrix(1,0,0,-1,10.5799998,15)" fill="rgb(255,255,255)" stroke="rgb(0,0,0)" stroke-width="0.0010cm" stroke-linecap="round" stroke-linejoin="round" /><path d="M8.911497,11.4799993 L9.3999998,11.4799993 9.3999998,8.4799994 8.911497,8.4799994 8.911497,11.4799993z" transform="matrix(1,0,0,-1,10.5799998,15)" fill="rgb(255,255,255)" stroke="rgb(0,0,0)" stroke-width="0.0010cm" stroke-linecap="round" stroke-linejoin="round" /><path d="M9.3999998,-11.4800002 L8.911497,-11.4804833 8.911497,-8.4776968 9.3999998,-8.4776968 9.3999998,-11.4800002z" transform="matrix(1,0,0,-1,10.5799998,15)" fill="rgb(255,255,255)" stroke="rgb(0,0,0)" stroke-width="0.0010cm" stroke-linecap="round" stroke-linejoin="round" /><path d="M-9.0884495,5.4799995 L-9.0884495,2.4799995 -9.7599998,2.4799995 -9.7599998,5.4799995 -9.0884495,5.4799995z" transform="matrix(1,0,0,-1,10.5799998,15)" fill="rgb(255,255,255)" stroke="rgb(0,0,0)" stroke-width="0.0010cm" stroke-linecap="round" stroke-linejoin="round" /><path d="M-9.0884495,-2.4800004 L-9.0884495,-5.4800003 -9.7599998,-5.4800003 -9.7599998,-2.4800004 -9.0884495,-2.4800004z" transform="matrix(1,0,0,-1,10.5799998,15)" fill="rgb(255,255,255)" stroke="rgb(0,0,0)" stroke-width="0.0010cm" stroke-linecap="round" stroke-linejoin="round" /><path d="M-9.0884495,8.4799994 L-9.7599998,8.4799994 -9.7599998,11.4799993 -9.0884495,11.4799993 -9.0884495,8.4799994z" transform="matrix(1,0,0,-1,10.5799998,15)" fill="rgb(255,255,255)" stroke="rgb(0,0,0)" stroke-width="0.0010cm" stroke-linecap="round" stroke-linejoin="round" /><path d="M-9.0884495,-8.4800002 L-9.0884495,-11.4799944 -9.7599998,-11.4800002 -9.7599998,-8.4800002 -9.0884495,-8.4800002z" transform="matrix(1,0,0,-1,10.5799998,15)" fill="rgb(255,255,255)" stroke="rgb(0,0,0)" stroke-width="0.0010cm" stroke-linecap="round" stroke-linejoin="round" /><path d="M8.7700002,-10.7700001 L8.7700002,-12.7700001 6.7700002,-12.7700001 6.7700002,-12.2500001 8.2500002,-12.2500001 8.2500002,-10.7700001 8.7700002,-10.7700001z" transform="matrix(1,0,0,-1,10.5799998,15)" fill="rgb(255,255,255)" stroke="rgb(0,0,0)" stroke-width="0.0010cm" stroke-linecap="round" stroke-linejoin="round" /><path d="M-8.2499998,0.9999999 L-8.2499998,-1.0000001 -8.7699998,-1.0000001 -8.7699998,0.9999999 -8.2499998,0.9999999z" transform="matrix(1,0,0,-1,10.5799998,15)" fill="rgb(255,255,255)" stroke="rgb(0,0,0)" stroke-width="0.0010cm" stroke-linecap="round" stroke-linejoin="round" /><path d="M8.2500002,10.7699999 L8.2500002,12.2499999 6.7700002,12.2499999 6.7700002,12.7699999 8.7700002,12.7699999 8.7700002,10.7699999 8.2500002,10.7699999z" transform="matrix(1,0,0,-1,10.5799998,15)" fill="rgb(255,255,255)" stroke="rgb(0,0,0)" stroke-width="0.0010cm" stroke-linecap="round" stroke-linejoin="round" /><path d="M-8.2499998,-10.7700001 L-8.2499998,-12.2500001 -6.7699998,-12.2500001 -6.7699998,-12.7700001 -8.7699998,-12.7700001 -8.7699998,-10.7700001 -8.2499998,-10.7700001z" transform="matrix(1,0,0,-1,10.5799998,15)" fill="rgb(255,255,255)" stroke="rgb(0,0,0)" stroke-width="0.0010cm" stroke-linecap="round" stroke-linejoin="round" /><path d="M8.2500002,1.0199999 L8.7700002,1.0199999 8.7700002,-0.9800001 8.2500002,-0.9800001 8.2500002,1.0199999z" transform="matrix(1,0,0,-1,10.5799998,15)" fill="rgb(255,255,255)" stroke="rgb(0,0,0)" stroke-width="0.0010cm" stroke-linecap="round" stroke-linejoin="round" /><path d="M-0.9999998,12.7699999 L1.0000002,12.7699999 1.0000002,12.2499999 -0.9999998,12.2499999 -0.9999998,12.7699999z" transform="matrix(1,0,0,-1,10.5799998,15)" fill="rgb(255,255,255)" stroke="rgb(0,0,0)" stroke-width="0.0010cm" stroke-linecap="round" stroke-linejoin="round" /><path d="M1.0000002,-12.7700001 L-0.9999998,-12.7700001 -0.9999998,-12.2500001 1.0000002,-12.2500001 1.0000002,-12.7700001z" transform="matrix(1,0,0,-1,10.5799998,15)" fill="rgb(255,255,255)" stroke="rgb(0,0,0)" stroke-width="0.0010cm" stroke-linecap="round" stroke-linejoin="round" /><path d="M-8.7699998,12.7699999 L-6.7699998,12.7699999 -6.7699998,12.2499999 -8.2499998,12.2499999 -8.2499998,10.7699999 -8.7699998,10.7699999 -8.7699998,12.7699999z" transform="matrix(1,0,0,-1,10.5799998,15)" fill="rgb(255,255,255)" stroke="rgb(0,0,0)" stroke-width="0.0010cm" stroke-linecap="round" stroke-linejoin="round" /></svg>