<?xml version="1.0" encoding="utf-8"?>
<!-- Generator: Fusion 360, Shaper Origin Export Add-In, Version 1.8.0  -->
<svg xmlns="http://www.w3.org/2000/svg" xmlns:xlink="http://www.w3.org/1999/xlink" xmlns:shaper="http://www.shapertools.com/namespaces/shaper" shaper:fusionaddin="version:1.8.0" width="27.9199994cm" height="1.72318cm" version="1.1" x="0cm" y="0cm" viewBox="0 0 27.9199994 1.72318" enable-background="new 0 0 27.9199994 1.72318" xml:space="preserve"><path d="M-11.9600003,0.34159 L-13.9599997,0.34159 -13.9599997,-0.86159 -11.9599997,-0.86159 -11.9599997,-0.56159 -0.9999997,-0.56159 -0.9999997,-0.86159 1.0000003,-0.86159 1.0000003,-0.56159 11.9599997,-0.56159 11.9599997,-0.86159 13.9599997,-0.86159 13.9599997,0.86159 11.9599997,0.86159 11.9599997,0.34159 9.9599997,0.34159 9.9599997,0.86159 7.9599997,0.86159 7.9599997,0.34159 5.9599997,0.34159 5.9599997,0.86159 3.9599997,0.86159 3.9599997,0.34159 1.9599997,0.34159 1.9599997,0.86159 0.0399997,0.86159 0.0399997,0.34159 -1.9600003,0.34159 -1.9600003,0.86159 -3.9600003,0.86159 -3.9600003,0.34159 -5.9600003,0.34159 -5.9600003,0.86159 -7.9600003,0.86159 -7.9600003,0.34159 -9.9600003,0.34159 -9.9600003,0.86159 -11.9600003,0.86159 -11.9600003,0.34159z" transform="matrix(1,0,0,-1,13.9599997,0.86159)" fill="rgb(0,0,0)" stroke-linecap="round" stroke-linejoin="round" /></svg>