<?xml version="1.0" encoding="utf-8"?>
<!-- Generator: Fusion 360, Shaper Origin Export Add-In, Version 1.8.0  -->
<svg xmlns="http://www.w3.org/2000/svg" xmlns:xlink="http://www.w3.org/1999/xlink" xmlns:shaper="http://www.shapertools.com/namespaces/shaper" shaper:fusionaddin="version:1.8.0" width="21.160804cm" height="29.9999993cm" version="1.1" x="0cm" y="0cm" viewBox="0 0 21.160804 29.9999993" enable-background="new 0 0 21.160804 29.9999993" xml:space="preserve"><path d="M-18.8299801,8.0678589 L-18.3099802,8.0678583 -18.3099824,6.0678583 -18.8299824,6.0678589 -18.8299948,-4.8921408 -18.3099948,-4.8921414 -18.3099971,-6.8921414 -18.8299971,-6.8921408 -18.8307811,-17.8521576 -18.3107811,-17.8521582 -18.3107834,-19.8521582 -18.8307834,-19.8521576 -18.830784,-20.3721576 -16.3465944,-20.3721604 -16.3465944,-20.8921604 -1.1900127,-20.8921604 -1.1900127,-20.3721604 0.8099872,-20.3721627 2.3299872,-20.3721644 2.3299878,-19.8521644 1.8099878,-19.8521638 1.8099901,-17.8521639 2.3299901,-17.8521645 2.3300025,-6.8921647 1.8100025,-6.8921641 1.8100047,-4.8921642 2.3300047,-4.8921648 2.3300171,6.067835 1.8100171,6.0678356 1.8100194,8.0678355 2.3300194,8.0678349 2.33002,8.5878349 0.81002,8.5878366 -1.1899799,8.5878389 -1.1899794,9.1078389 -16.346557,9.107836 -16.3465576,8.587836 -18.3465576,8.5878382 -18.8299796,8.5878589 -18.8299801,8.0678589z" transform="matrix(1,0,0,-1,18.830784,9.1078389)" fill="rgb(0,0,0)" stroke-linecap="round" stroke-linejoin="round" /><path d="M-9.2428722,-18.6622358 L-9.2428716,-18.1422358 -15.0200098,-18.1421448 -15.0200104,-18.6621448 -17.0200104,-18.6621425 -17.0200081,-16.6421425 -16.5000081,-16.6421431 -16.4999967,-6.896259 -17.0199967,-6.8962584 -17.0199945,-4.8962584 -16.4999945,-4.896259 -16.4995347,4.8572994 -17.0195347,4.8572999 -17.0195324,6.8772999 -15.0195324,6.8772977 -15.019533,6.3572977 -9.265414,6.3578598 -9.2654135,6.8778598 -7.2654135,6.8778575 -7.265414,6.3578575 -1.4801311,6.3578248 -1.4801305,6.8778248 0.5198695,6.8778226 0.5198672,4.8578226 -0.0001328,4.8578232 -0.0000055,-4.8778232 0.5199945,-4.8778237 0.5199922,-6.8778237 -0.0000078,-6.8778232 -0.0000165,-16.6422054 0.5199835,-16.642206 0.5199812,-18.662206 -1.4800188,-18.6622037 -1.4800182,-18.1422037 -7.2428716,-18.1422381 -7.2428722,-18.6622381 -9.2428722,-18.6622358z" transform="matrix(1,0,0,-1,18.830784,9.1078389)" fill="rgb(255,255,255)" stroke="rgb(0,0,0)" stroke-width="0.0010cm" stroke-linecap="round" stroke-linejoin="round" /></svg>