<?xml version="1.0" encoding="utf-8"?>
<!-- Generator: Fusion 360, Shaper Origin Export Add-In, Version 1.8.0  -->
<svg xmlns="http://www.w3.org/2000/svg" xmlns:xlink="http://www.w3.org/1999/xlink" xmlns:shaper="http://www.shapertools.com/namespaces/shaper" shaper:fusionaddin="version:1.8.0" width="22.2646117cm" height="16.1640787cm" version="1.1" x="0cm" y="0cm" viewBox="0 0 22.2646117 16.1640787" enable-background="new 0 0 22.2646117 16.1640787" xml:space="preserve"><path d="M-8.9003479,-0.4903568 L-8.2163076,-2.369742 -6.8255625,-1.8635522 -6.647712,-2.3521924 -8.5270973,-3.0362327 -7.6788873,-5.3666703 -7.1902471,-5.1888198 -6.5062069,-7.068205 -6.9948471,-7.2460555 -6.3108068,-9.1254407 -5.8221666,-8.9475902 -5.1381263,-10.8269754 -3.7473813,-10.3207854 -3.5695308,-10.8094256 -1.6901456,-10.1253853 -1.8679961,-9.6367451 0.0113892,-8.9527049 0.1892397,-9.441345 2.0686249,-8.7573047 1.8907744,-8.2686646 3.7701597,-7.5846243 3.9480101,-8.0732644 5.8273954,-7.3892242 5.6495449,-6.900584 7.5289302,-6.2165437 7.7067806,-6.7051839 9.5861659,-6.0211436 9.4083154,-5.5325034 10.7990605,-5.0263136 10.1150202,-3.1469284 10.6036604,-2.9690779 9.9196201,-1.0896927 9.4309799,-1.2675431 8.7469396,0.6118421 9.2355798,0.7896926 8.3873698,3.1201303 6.5079846,2.43609 6.3301341,2.9247302 8.2095193,3.6087705 7.6896489,5.0371028 7.6896489,5.3371033 5.6896489,5.3371033 5.6896489,5.0371033 -9.4655512,5.0371033 -9.4655512,5.3371033 -11.4655512,5.3371033 -11.4655512,5.0371033 -10.7570686,3.0905632 -10.2684284,3.2684136 -9.5843882,1.3890284 -10.0730283,1.2111779 -9.388988,-0.6682073 -8.9003479,-0.4903568z" transform="matrix(1,0,0,-1,11.4655512,5.3371033)" fill="rgb(0,0,0)" stroke-linecap="round" stroke-linejoin="round" /><path d="M0.211042,4.1339253 L2.211042,4.1339255 2.211042,3.6139255 0.211042,3.6139253 0.211042,4.1339253z" transform="matrix(1,0,0,-1,11.4655512,5.3371033)" fill="rgb(255,255,255)" stroke="rgb(0,0,0)" stroke-width="0.0010cm" stroke-linecap="round" stroke-linejoin="round" /><path d="M-4.9489576,4.1339251 L-2.9489576,4.1339252 -2.9489575,3.6139252 -4.9489575,3.6139251 -4.9489576,4.1339251z" transform="matrix(1,0,0,-1,11.4655512,5.3371033)" fill="rgb(255,255,255)" stroke="rgb(0,0,0)" stroke-width="0.0010cm" stroke-linecap="round" stroke-linejoin="round" /><path d="M0.869829,0.3839688 L-1.0095563,-0.3000715 -1.1874069,0.188569 0.6919784,0.8726093 0.869829,0.3839688z" transform="matrix(1,0,0,-1,11.4655512,5.3371033)" fill="rgb(255,255,255)" stroke="rgb(0,0,0)" stroke-width="0.0010cm" stroke-linecap="round" stroke-linejoin="round" /><path d="M4.6285993,1.7520497 L2.7492141,1.0680095 2.5713636,1.5566496 4.4507489,2.2406899 4.6285993,1.7520497z" transform="matrix(1,0,0,-1,11.4655512,5.3371033)" fill="rgb(255,255,255)" stroke="rgb(0,0,0)" stroke-width="0.0010cm" stroke-linecap="round" stroke-linejoin="round" /><path d="M-4.7683268,-1.6681521 L-4.9461773,-1.1795119 -3.066792,-0.4954717 -2.8889416,-0.9841118 -4.7683268,-1.6681521z" transform="matrix(1,0,0,-1,11.4655512,5.3371033)" fill="rgb(255,255,255)" stroke="rgb(0,0,0)" stroke-width="0.0010cm" stroke-linecap="round" stroke-linejoin="round" /></svg>