<?xml version="1.0" encoding="utf-8"?>
<!-- Generator: Fusion 360, Shaper Origin Export Add-In, Version 1.8.0  -->
<svg xmlns="http://www.w3.org/2000/svg" xmlns:xlink="http://www.w3.org/1999/xlink" xmlns:shaper="http://www.shapertools.com/namespaces/shaper" shaper:fusionaddin="version:1.8.0" width="9.0399998cm" height="16.9599996cm" version="1.1" x="0cm" y="0cm" viewBox="0 0 9.0399998 16.9599996" enable-background="new 0 0 9.0399998 16.9599996" xml:space="preserve"><path d="M3.9999999,-6.9999999 L3.9999999,-4.9999999 4.5199999,-4.9999999 4.5199999,-2.9999999 3.9999999,-2.9999999 3.9999999,-0.9999999 4.5199999,-0.9999999 4.5199999,1.0000001 3.9999999,1.0000001 3.9999999,3.0000001 4.5199999,3.0000001 4.5199999,5.0000001 3.9999999,5.0000001 3.9999999,7.0000001 4.5199999,7.0000001 4.5199999,8.4799998 -4.5199999,8.4799998 -4.5199999,7.0000002 -3.9999999,7.0000002 -3.9999999,5.0000002 -4.5199999,5.0000002 -4.5199999,3.0000002 -3.9999999,3.0000002 -3.9999999,1.0000002 -4.5199999,1.0000002 -4.5199999,-0.9999998 -3.9999999,-0.9999998 -3.9999999,-2.9999998 -4.5199999,-2.9999998 -4.5199999,-4.9999998 -3.9999999,-4.9999998 -3.9999999,-6.9999998 -4.5199999,-6.9999998 -4.5199999,-8.4799998 4.5199999,-8.4799998 4.5199999,-6.9999999 3.9999999,-6.9999999z" transform="matrix(1,0,0,-1,4.5199999,8.4799998)" fill="rgb(0,0,0)" stroke-linecap="round" stroke-linejoin="round" /><path d="M-0.2500001,6.9899998 a0.25,0.25 0 1,1 0.5,0 a0.25,0.25 0 1,1 -0.5,0z" transform="matrix(1,0,0,-1,4.5199999,8.4799998)" fill="rgb(255,255,255)" stroke="rgb(0,0,0)" stroke-width="0.0010cm" stroke-linecap="round" stroke-linejoin="round" /><path d="M1.7499999,6.9899998 a0.25,0.25 0 1,1 0.5,0 a0.25,0.25 0 1,1 -0.5,0z" transform="matrix(1,0,0,-1,4.5199999,8.4799998)" fill="rgb(255,255,255)" stroke="rgb(0,0,0)" stroke-width="0.0010cm" stroke-linecap="round" stroke-linejoin="round" /><path d="M-2.2499999,6.9899998 a0.25,0.25 0 1,1 0.5,0 a0.25,0.25 0 1,1 -0.5,0z" transform="matrix(1,0,0,-1,4.5199999,8.4799998)" fill="rgb(255,255,255)" stroke="rgb(0,0,0)" stroke-width="0.0010cm" stroke-linecap="round" stroke-linejoin="round" /><path d="M1.6000001,-7.9899998 L-1.5999999,-7.9899998 -1.5999999,-5.9899998 1.6000001,-5.9899998 1.6000001,-7.9899998z" transform="matrix(1,0,0,-1,4.5199999,8.4799998)" fill="rgb(255,255,255)" stroke="rgb(0,0,0)" stroke-width="0.0010cm" stroke-linecap="round" stroke-linejoin="round" /></svg>