<?xml version="1.0" encoding="utf-8"?>
<!-- Generator: Fusion 360, Shaper Origin Export Add-In, Version 1.8.0  -->
<svg xmlns="http://www.w3.org/2000/svg" xmlns:xlink="http://www.w3.org/1999/xlink" xmlns:shaper="http://www.shapertools.com/namespaces/shaper" shaper:fusionaddin="version:1.8.0" width="25.8451139cm" height="24.8367502cm" version="1.1" x="0cm" y="0cm" viewBox="0 0 25.8451139 24.8367502" enable-background="new 0 0 25.8451139 24.8367502" xml:space="preserve"><path d="M6.6263004,-6.4804619 L-1.1167671,-3.6622158 0.9285136,1.9571465 8.1829407,-0.6832495 8.866981,1.1961357 7.476236,1.7023257 7.6540864,2.1909659 9.5334717,1.5069256 10.2175119,3.3863107 9.7288717,3.5641612 10.412912,5.4435464 10.9015522,5.2656959 11.5855925,7.1450812 11.0969523,7.3229316 11.7809926,9.2023169 12.2696328,9.0244664 12.4474832,9.5131065 10.568098,10.1971468 10.3902475,9.7085067 8.5108623,10.3925469 8.6887127,10.8811871 6.8093275,11.5652274 6.631477,11.0765872 4.7520918,11.7606275 4.9299423,12.2492677 3.050557,12.933308 2.8727065,12.4446678 0.9933213,13.1287081 1.1711718,13.6173482 -0.7082135,14.3013885 -0.8860639,13.8127484 -2.7654492,14.4967887 -2.5875987,14.9854288 -4.4669839,15.6694691 -4.6448344,15.180829 -4.1561943,15.0029785 -4.8402346,13.1235933 -5.3288747,13.3014437 -6.012915,11.4220585 -5.5242749,11.244208 -6.2083152,9.3648228 -6.6969553,9.5426733 -7.3809955,7.6632882 -5.5016102,6.9792479 -5.6794607,6.4906077 -7.0702058,6.9967976 -7.7542461,5.1174123 -8.2428863,5.2952628 -8.9269265,3.4158775 -8.4382864,3.2380271 -9.1223267,1.3586418 -9.6109668,1.5364923 -10.4591769,-0.7939456 -8.5797917,-1.4779859 -8.7576422,-1.966626 -10.1483871,-1.4604358 -10.8324274,-3.339821 -11.3210675,-3.1619706 -12.0051077,-5.0413558 -11.5164676,-5.2192062 -12.2005079,-7.0985914 -12.689148,-6.920741 -13.3976307,-8.8672811 -13.3976307,-9.1672811 -11.3976307,-9.1672811 -11.3976307,-8.8672811 3.7575692,-8.8672811 3.7575692,-9.1672811 5.7575692,-9.1672811 5.7575692,-8.8672811 6.2774398,-7.4389484 4.3980542,-6.7549079 4.5759047,-6.2662678 6.4552903,-6.9503082 6.6263004,-6.4804619z" transform="matrix(1,0,0,-1,13.3976307,15.6694691)" fill="rgb(0,0,0)" stroke-linecap="round" stroke-linejoin="round" /><path d="M-1.7210375,-7.4441032 L0.2789625,-7.4441033 0.2789625,-7.9641033 -1.7210375,-7.9641032 -1.7210375,-7.4441032z" transform="matrix(1,0,0,-1,13.3976307,15.6694691)" fill="rgb(255,255,255)" stroke="rgb(0,0,0)" stroke-width="0.0010cm" stroke-linecap="round" stroke-linejoin="round" /><path d="M-6.881037,-7.4441029 L-4.881037,-7.444103 -4.8810371,-7.964103 -6.8810371,-7.9641029 -6.881037,-7.4441029z" transform="matrix(1,0,0,-1,13.3976307,15.6694691)" fill="rgb(255,255,255)" stroke="rgb(0,0,0)" stroke-width="0.0010cm" stroke-linecap="round" stroke-linejoin="round" /><path d="M-8.0059578,0.4202279 L-6.5694732,4.3669369 -4.314211,3.5460886 -5.7506956,-0.4006204 -8.0059578,0.4202279z" transform="matrix(1,0,0,-1,13.3976307,15.6694691)" fill="rgb(255,255,255)" stroke="rgb(0,0,0)" stroke-width="0.0010cm" stroke-linecap="round" stroke-linejoin="round" /><path d="M-2.1976931,7.3729868 L-0.7612085,11.3196958 1.4940538,10.4988475 0.0575692,6.5521385 -2.1976931,7.3729868z" transform="matrix(1,0,0,-1,13.3976307,15.6694691)" fill="rgb(255,255,255)" stroke="rgb(0,0,0)" stroke-width="0.0010cm" stroke-linecap="round" stroke-linejoin="round" /><path d="M-5.1117046,-0.6331941 L-3.67522,3.3135149 -1.4199577,2.4926665 -2.8564423,-1.4540425 -5.1117046,-0.6331941z" transform="matrix(1,0,0,-1,13.3976307,15.6694691)" fill="rgb(255,255,255)" stroke="rgb(0,0,0)" stroke-width="0.0010cm" stroke-linecap="round" stroke-linejoin="round" /><path d="M-5.0919464,8.4264089 L-3.6554617,12.3731179 -1.4001995,11.5522695 -2.8366841,7.6055605 -5.0919464,8.4264089z" transform="matrix(1,0,0,-1,13.3976307,15.6694691)" fill="rgb(255,255,255)" stroke="rgb(0,0,0)" stroke-width="0.0010cm" stroke-linecap="round" stroke-linejoin="round" /><path d="M3.7174655,3.0704063 L3.895316,3.5590465 5.7747012,2.8750062 5.5968507,2.386366 3.7174655,3.0704063z" transform="matrix(1,0,0,-1,13.3976307,15.6694691)" fill="rgb(255,255,255)" stroke="rgb(0,0,0)" stroke-width="0.0010cm" stroke-linecap="round" stroke-linejoin="round" /><path d="M-3.8000755,5.8065675 L-3.622225,6.2952076 -1.7428398,5.6111673 -1.9206902,5.1225272 -3.8000755,5.8065675z" transform="matrix(1,0,0,-1,13.3976307,15.6694691)" fill="rgb(255,255,255)" stroke="rgb(0,0,0)" stroke-width="0.0010cm" stroke-linecap="round" stroke-linejoin="round" /><path d="M2.518669,-6.0708677 L0.6392838,-5.3868274 0.8171343,-4.8981872 2.6965195,-5.5822275 2.518669,-6.0708677z" transform="matrix(1,0,0,-1,13.3976307,15.6694691)" fill="rgb(255,255,255)" stroke="rgb(0,0,0)" stroke-width="0.0010cm" stroke-linecap="round" stroke-linejoin="round" /><path d="M-6.7004064,-2.1620262 L-4.8210212,-2.8460664 -4.9988717,-3.3347066 -6.8782569,-2.6506663 -6.7004064,-2.1620262z" transform="matrix(1,0,0,-1,13.3976307,15.6694691)" fill="rgb(255,255,255)" stroke="rgb(0,0,0)" stroke-width="0.0010cm" stroke-linecap="round" stroke-linejoin="round" /><path d="M-2.9416358,-3.5301063 L-2.2462634,-3.7832012 0.6540673,4.1853921 -0.041305,4.4384869 0.1365455,4.927127 2.0159307,4.2430868 1.8380802,3.7544466 1.1427075,4.0075416 -1.7576233,-3.9610517 -1.0622506,-4.2141466 -1.2401012,-4.7027872 -3.1194864,-4.0187469 -2.9416358,-3.5301063z" transform="matrix(1,0,0,-1,13.3976307,15.6694691)" fill="rgb(255,255,255)" stroke="rgb(0,0,0)" stroke-width="0.0010cm" stroke-linecap="round" stroke-linejoin="round" /><path d="M3.6453297,4.7142116 L5.3554304,9.4126747 9.1142009,8.0445941 7.4041002,3.346131 3.6453297,4.7142116z" transform="matrix(1,0,0,-1,13.3976307,15.6694691)" fill="rgb(255,255,255)" stroke="rgb(0,0,0)" stroke-width="0.0010cm" stroke-linecap="round" stroke-linejoin="round" /></svg>