<?xml version="1.0" encoding="utf-8"?>
<!-- Generator: Fusion 360, Shaper Origin Export Add-In, Version 1.8.0  -->
<svg xmlns="http://www.w3.org/2000/svg" xmlns:xlink="http://www.w3.org/1999/xlink" xmlns:shaper="http://www.shapertools.com/namespaces/shaper" shaper:fusionaddin="version:1.8.0" width="20.2600006cm" height="9.0000007cm" version="1.1" x="0cm" y="0cm" viewBox="0 0 20.2600006 9.0000007" enable-background="new 0 0 20.2600006 9.0000007" xml:space="preserve"><path d="M7.8700003,3.9799999 L7.87,-3.5200001 1.87,-3.5199999 1.8700003,3.9800001 1,3.98 1,4.5 -1,4.5 -1,3.98 -4.1099993,3.9800002 -4.1099992,4.5000002 -5.1099992,4.5000002 -5.1099993,3.9800002 -8.1099993,3.9800003 -8.1099992,4.5000003 -9.1099992,4.5000004 -9.1099993,3.9800004 -10.13,3.9800004 -10.1300003,-4.4999996 -0.3899998,-4.4999996 -0.3899996,-0.2599996 0.1300004,-0.2599996 0.1300002,-4.4999996 9.61,-4.5000004 9.6100001,-0.2600004 10.1300001,-0.2600004 10.1300003,3.9799996 9.11,3.9799996 9.11,4.4999996 8.11,4.4999997 8.11,3.9799997 7.8700003,3.9799999z" transform="matrix(1,0,0,-1,10.1300003,4.5000004)" fill="rgb(0,0,0)" stroke-linecap="round" stroke-linejoin="round" /></svg>