<?xml version="1.0" encoding="utf-8"?>
<!-- Generator: Fusion 360, Shaper Origin Export Add-In, Version 1.8.0  -->
<svg xmlns="http://www.w3.org/2000/svg" xmlns:xlink="http://www.w3.org/1999/xlink" xmlns:shaper="http://www.shapertools.com/namespaces/shaper" shaper:fusionaddin="version:1.8.0" width="17.9999996cm" height="9cm" version="1.1" x="0cm" y="0cm" viewBox="0 0 17.9999996 9" enable-background="new 0 0 17.9999996 9" xml:space="preserve"><path d="M1.3599999,-0.26 L1.3599999,3.98 -1.3599999,3.98 -1.3599999,4.5 -2.3599999,4.5 -2.3599999,3.98 -5.3599999,3.98 -5.3599999,4.5 -6.8599999,4.5 -6.8599999,3.98 -7.3799999,3.9800002 -7.3799999,1.9800002 -6.8599999,1.9800002 -6.8599999,-0.0199998 -7.3799999,-0.0199998 -7.3799999,-2.0199998 -6.8599999,-2.0199998 -6.8599999,-4.5 10.0999997,-4.5 10.0999997,-2.0199998 10.6199997,-2.0199998 10.6199997,-0.0199998 10.0999997,-0.0199998 10.0999997,1.9800002 10.6199997,1.9800002 10.6199997,3.9800002 10.0999997,3.9800002 10.0999997,4.5 8.5999997,4.5 8.5999997,3.98 5.5999997,3.98 5.5999997,4.5 4.5999997,4.5 4.5999997,3.98 1.8799999,3.98 1.8799999,-0.26 1.3599999,-0.26z" transform="matrix(1,0,0,-1,7.3799999,4.5)" fill="rgb(0,0,0)" stroke-linecap="round" stroke-linejoin="round" /></svg>