<?xml version="1.0" encoding="utf-8"?>
<!-- Generator: Fusion 360, Shaper Origin Export Add-In, Version 1.8.0  -->
<svg xmlns="http://www.w3.org/2000/svg" xmlns:xlink="http://www.w3.org/1999/xlink" xmlns:shaper="http://www.shapertools.com/namespaces/shaper" shaper:fusionaddin="version:1.8.0" width="17.9999996cm" height="9cm" version="1.1" x="0cm" y="0cm" viewBox="0 0 17.9999996 9" enable-background="new 0 0 17.9999996 9" xml:space="preserve"><path d="M-6.9799998,-5.8699998 L-7.3699998,-5.8699998 -7.3699998,1.6300002 -1.3699998,1.6300002 -1.3699998,-5.8699998 -0.26,-5.87 -0.26,-1.6300002 0.26,-1.6300002 0.26,-5.87 2.97,-5.8699998 2.97,1.1300002 5.77,1.1300002 5.77,-5.8699998 6.9799998,-5.8699998 6.9799998,-6.3899998 8.4799998,-6.3899998 8.4799998,-5.8699998 8.9999998,-5.8699998 8.9999998,-3.8699998 8.4799998,-3.8699998 8.4799998,-1.8699998 8.9999998,-1.8699998 8.9999998,0.1300002 8.4799998,0.1300002 8.4799998,2.6100002 -8.4799998,2.6100002 -8.4799998,0.13 -8.9999998,0.13 -8.9999998,-1.87 -8.4799998,-1.87 -8.4799998,-3.87 -8.9999998,-3.87 -8.9999998,-5.87 -8.4799998,-5.87 -8.4799998,-6.3899998 -6.9799998,-6.3899998 -6.9799998,-5.8699998z" transform="matrix(1,0,0,-1,8.9999998,2.6100002)" fill="rgb(0,0,0)" stroke-linecap="round" stroke-linejoin="round" /></svg>