<?xml version="1.0" encoding="utf-8"?>
<!-- Generator: Fusion 360, Shaper Origin Export Add-In, Version 1.8.0  -->
<svg xmlns="http://www.w3.org/2000/svg" xmlns:xlink="http://www.w3.org/1999/xlink" xmlns:shaper="http://www.shapertools.com/namespaces/shaper" shaper:fusionaddin="version:1.8.0" width="29.9999994cm" height="18.0000001cm" version="1.1" x="0cm" y="0cm" viewBox="0 0 29.9999994 18.0000001" enable-background="new 0 0 29.9999994 18.0000001" xml:space="preserve"><path d="M-14.4799997,-9 L-13.0199999,-9 -13.0199999,-8.48 -11.0199999,-8.48 -11.0199999,-9 -9.0199999,-9 -9.0199999,-8.48 -7.02,-8.48 -7.02,-9 -5.02,-9 -5.02,-8.48 -3.0200001,-8.48 -3.0200001,-9 -1.0200001,-9 -1.0200001,-8.48 0.9799999,-8.48 0.9799999,-9 2.9799998,-9 2.9799998,-8.48 4.9799997,-8.48 4.9799997,-9 6.9799997,-9 6.9799997,-8.48 8.9799997,-8.48 8.9799997,-9 10.9799997,-9 10.9799997,-8.48 12.9799997,-8.48 12.9799997,-9 14.9999997,-9 14.9999997,-6.9999996 14.4799997,-6.9999996 14.4799997,-4.9999997 14.9999997,-4.9999997 14.9999997,-2.9999997 14.4799997,-2.9999997 14.4799997,-1 14.9999997,-1 14.9999997,1 14.4799997,1 14.4799997,3 14.9999997,3 14.9999997,5 14.4799997,5 14.4799997,7 14.9999997,7 14.9999997,9 14.4799997,9 12.9999997,9 12.9999997,8.48 10.9999998,8.48 10.9999998,9 8.9999998,9 8.9999998,8.48 6.9999998,8.48 6.9999998,9 4.9999999,9 4.9999999,8.48 2.9999999,8.48 2.9999999,9 0.9999999,9 0.9999999,8.48 -1,8.48 -1,9 -2.9999999,9 -2.9999999,8.48 -4.9999999,8.48 -4.9999999,9 -6.9999998,9 -6.9999998,8.48 -8.9999998,8.48 -8.9999998,9 -10.9999998,9 -10.9999998,8.48 -12.9999997,8.48 -12.9999997,9 -14.4799997,9 -14.9999997,9 -14.9999997,7 -14.4799997,7 -14.4799997,5 -14.9999997,5 -14.9999997,3 -14.4799997,3 -14.4799997,1 -14.9999997,1 -14.9999997,-1 -14.4799997,-1 -14.4799997,-3 -14.9999997,-3 -14.9999997,-5 -14.4799997,-5 -14.4799997,-7 -14.9999997,-7 -14.9999997,-9 -14.4799997,-9z" transform="matrix(1,0,0,-1,14.9999997,9)" fill="rgb(0,0,0)" stroke-linecap="round" stroke-linejoin="round" /></svg>