<?xml version="1.0" encoding="utf-8"?>
<!-- Generator: Fusion 360, Shaper Origin Export Add-In, Version 1.8.0  -->
<svg xmlns="http://www.w3.org/2000/svg" xmlns:xlink="http://www.w3.org/1999/xlink" xmlns:shaper="http://www.shapertools.com/namespaces/shaper" shaper:fusionaddin="version:1.8.0" width="15cm" height="20cm" version="1.1" x="0cm" y="0cm" viewBox="0 0 15 20" enable-background="new 0 0 15 20" xml:space="preserve"><g id="Body_Body32"><path d="M73.5,-21.5 L58.5,-21.5 58.5,-1.5 73.5,-1.5 73.5,-21.5z" transform="matrix(1,0,0,-1,-58.5,-1.5)" fill="rgb(0,0,0)" shaper:cutDepth="0.5cm" stroke-linecap="round" stroke-linejoin="round" /><path d="M65.75,-2.9999999 L65.75,-3.5999999 66.25,-3.5999999 66.25,-2.9999999 65.75,-2.9999999z" transform="matrix(1,0,0,-1,-58.5,-1.5)" fill="rgb(255,255,255)" stroke="rgb(0,0,0)" stroke-width="0.0010cm" stroke-linecap="round" stroke-linejoin="round" shaper:cutDepth="0.5cm" /><path d="M66.25,-10.6499999 L65.75,-10.6499999 65.75,-11.2499999 66.25,-11.2499999 66.25,-10.6499999z" transform="matrix(1,0,0,-1,-58.5,-1.5)" fill="rgb(255,255,255)" stroke="rgb(0,0,0)" stroke-width="0.0010cm" stroke-linecap="round" stroke-linejoin="round" shaper:cutDepth="0.5cm" /><path d="M66.25,-16.2499999 L65.75,-16.2499999 65.75,-18.2499999 66.25,-18.2499999 66.25,-16.2499999z" transform="matrix(1,0,0,-1,-58.5,-1.5)" fill="rgb(255,255,255)" stroke="rgb(0,0,0)" stroke-width="0.0010cm" stroke-linecap="round" stroke-linejoin="round" shaper:cutDepth="0.5cm" /><path d="M69.7499984,-11.7499999 L69.7499984,-11.2499999 67.7499984,-11.2499999 67.7499984,-11.7499999 69.7499984,-11.7499999z" transform="matrix(1,0,0,-1,-58.5,-1.5)" fill="rgb(255,255,255)" stroke="rgb(0,0,0)" stroke-width="0.0010cm" stroke-linecap="round" stroke-linejoin="round" shaper:cutDepth="0.5cm" /><path d="M65.7499984,-11.75 L65.7499984,-11.25 65.1499984,-11.25 65.1499984,-11.75 65.7499984,-11.75z" transform="matrix(1,0,0,-1,-58.5,-1.5)" fill="rgb(255,255,255)" stroke="rgb(0,0,0)" stroke-width="0.0010cm" stroke-linecap="round" stroke-linejoin="round" shaper:cutDepth="0.5cm" /><path d="M65,-2.5 L61,-2.5 61,-3 65,-3 65,-2.5z" transform="matrix(1,0,0,-1,-58.5,-1.5)" fill="rgb(255,255,255)" stroke="rgb(0,0,0)" stroke-width="0.0010cm" stroke-linecap="round" stroke-linejoin="round" shaper:cutDepth="0.5cm" /><path d="M71,-2.5 L67,-2.5 67,-3 71,-3 71,-2.5z" transform="matrix(1,0,0,-1,-58.5,-1.5)" fill="rgb(255,255,255)" stroke="rgb(0,0,0)" stroke-width="0.0010cm" stroke-linecap="round" stroke-linejoin="round" shaper:cutDepth="0.5cm" /><path d="M72,-6.5 L72,-3 72.5,-3 72.5,-6.5 72,-6.5z" transform="matrix(1,0,0,-1,-58.5,-1.5)" fill="rgb(255,255,255)" stroke="rgb(0,0,0)" stroke-width="0.0010cm" stroke-linecap="round" stroke-linejoin="round" shaper:cutDepth="0.5cm" /><path d="M72.5,-13.4999999 L72.5,-9.4999999 72,-9.4999999 72,-13.4999999 72.5,-13.4999999z" transform="matrix(1,0,0,-1,-58.5,-1.5)" fill="rgb(255,255,255)" stroke="rgb(0,0,0)" stroke-width="0.0010cm" stroke-linecap="round" stroke-linejoin="round" shaper:cutDepth="0.5cm" /><path d="M72,-16.5 L72,-20 72.5,-20 72.5,-16.5 72,-16.5z" transform="matrix(1,0,0,-1,-58.5,-1.5)" fill="rgb(255,255,255)" stroke="rgb(0,0,0)" stroke-width="0.0010cm" stroke-linecap="round" stroke-linejoin="round" shaper:cutDepth="0.5cm" /><path d="M67,-20.5 L71,-20.5 71,-20 67,-20 67,-20.5z" transform="matrix(1,0,0,-1,-58.5,-1.5)" fill="rgb(255,255,255)" stroke="rgb(0,0,0)" stroke-width="0.0010cm" stroke-linecap="round" stroke-linejoin="round" shaper:cutDepth="0.5cm" /><path d="M61,-20.5 L65,-20.5 65,-20 61,-20 61,-20.5z" transform="matrix(1,0,0,-1,-58.5,-1.5)" fill="rgb(255,255,255)" stroke="rgb(0,0,0)" stroke-width="0.0010cm" stroke-linecap="round" stroke-linejoin="round" shaper:cutDepth="0.5cm" /><path d="M60,-16.5 L60,-20 59.5,-20 59.5,-16.5 60,-16.5z" transform="matrix(1,0,0,-1,-58.5,-1.5)" fill="rgb(255,255,255)" stroke="rgb(0,0,0)" stroke-width="0.0010cm" stroke-linecap="round" stroke-linejoin="round" shaper:cutDepth="0.5cm" /><path d="M60,-11.75 L60.5999984,-11.75 60.5999984,-11.25 60,-11.25 60,-9.5 59.5,-9.5 59.5,-13.5 60,-13.5 60,-11.75z" transform="matrix(1,0,0,-1,-58.5,-1.5)" fill="rgb(255,255,255)" stroke="rgb(0,0,0)" stroke-width="0.0010cm" stroke-linecap="round" stroke-linejoin="round" shaper:cutDepth="0.5cm" /><path d="M60,-7 L60,-3 59.5,-3 59.5,-7 60,-7z" transform="matrix(1,0,0,-1,-58.5,-1.5)" fill="rgb(255,255,255)" stroke="rgb(0,0,0)" stroke-width="0.0010cm" stroke-linecap="round" stroke-linejoin="round" shaper:cutDepth="0.5cm" /></g></svg>