<?xml version="1.0" encoding="utf-8"?>
<!-- Generator: Fusion 360, Shaper Origin Export Add-In, Version 1.8.0  -->
<svg xmlns="http://www.w3.org/2000/svg" xmlns:xlink="http://www.w3.org/1999/xlink" xmlns:shaper="http://www.shapertools.com/namespaces/shaper" shaper:fusionaddin="version:1.8.0" width="13cm" height="18.9999996cm" version="1.1" x="0cm" y="0cm" viewBox="0 0 13 18.9999996" enable-background="new 0 0 13 18.9999996" xml:space="preserve"><path d="M-7.6249986,-9.25 L-5.6249986,-9.25 -5.6249986,-9.7499996 -3.375,-9.7499996 -3.375,-7.25 -2.875,-7.25 -2.875,-9.7499996 -0.6249986,-9.7499996 -0.6249986,-9.25 1.3750013,-9.25 1.3750013,-9.7499996 2.875,-9.7499996 2.875,-7.25 3.375,-7.25 3.375,-5.25 2.875,-5.25 2.875,-3.25 3.375,-3.25 3.375,-1.25 2.875,-1.25 2.875,-0.5 1.375,-0.5 1.375,0 2.875,0 2.875,0.75 3.375,0.75 3.375,2.75 2.875,2.75 2.875,4.75 3.375,4.75 3.375,6.75 2.875,6.75 2.875,8.75 1.875,8.75 1.875,9.25 -2.125,9.25 -2.125,8.75 -2.875,8.75 -2.875,6.75 -3.375,6.75 -3.375,8.75 -4.125,8.75 -4.125,9.25 -8.125,9.25 -8.125,8.75 -9.125,8.75 -9.125,6.75 -9.625,6.75 -9.625,4.75 -9.125,4.75 -9.125,2.75 -9.625,2.75 -9.625,0.75 -9.125,0.75 -9.125,0 -7.625,0 -7.625,-0.5 -9.125,-0.5 -9.125,-1.25 -9.625,-1.25 -9.625,-3.25 -9.125,-3.25 -9.125,-5.25 -9.625,-5.25 -9.625,-7.25 -9.125,-7.25 -9.1249986,-8.7499996 -9.1249986,-9.7499996 -7.6249986,-9.7499996 -7.6249986,-9.25z" transform="matrix(1,0,0,-1,9.625,9.25)" fill="rgb(0,0,0)" stroke-linecap="round" stroke-linejoin="round" /><path d="M-2.875,0.75 L-2.875,0 -0.625,0 -0.625,-0.5 -2.875,-0.5 -2.875,-1.25 -3.375,-1.25 -3.375,-0.5 -5.625,-0.5 -5.625,0 -3.375,0 -3.375,0.75 -2.875,0.75z" transform="matrix(1,0,0,-1,9.625,9.25)" fill="rgb(255,255,255)" stroke="rgb(0,0,0)" stroke-width="0.0010cm" stroke-linecap="round" stroke-linejoin="round" /><path d="M-2.875,-3.25 L-2.875,-5.25 -3.375,-5.25 -3.375,-3.25 -2.875,-3.25z" transform="matrix(1,0,0,-1,9.625,9.25)" fill="rgb(255,255,255)" stroke="rgb(0,0,0)" stroke-width="0.0010cm" stroke-linecap="round" stroke-linejoin="round" /><path d="M-2.875,4.75 L-2.875,2.75 -3.375,2.75 -3.375,4.75 -2.875,4.75z" transform="matrix(1,0,0,-1,9.625,9.25)" fill="rgb(255,255,255)" stroke="rgb(0,0,0)" stroke-width="0.0010cm" stroke-linecap="round" stroke-linejoin="round" /></svg>