<?xml version="1.0" encoding="utf-8"?>
<!-- Generator: Fusion 360, Shaper Origin Export Add-In, Version 1.8.0  -->
<svg xmlns="http://www.w3.org/2000/svg" xmlns:xlink="http://www.w3.org/1999/xlink" xmlns:shaper="http://www.shapertools.com/namespaces/shaper" shaper:fusionaddin="version:1.8.0" width="12.9999997cm" height="18.0000001cm" version="1.1" x="0cm" y="0cm" viewBox="0 0 12.9999997 18.0000001" enable-background="new 0 0 12.9999997 18.0000001" xml:space="preserve"><path d="M-5.75,-7.625 L-5.75,-6.625 -4.25,-6.625 -4.2500013,-7.1249996 -2.25,-7.1249996 -2.25,-6.625 -0.5,-6.625 -0.5,-7.625 2.7582918,-7.6249996 2.7582918,-7.1249996 4.7499984,-7.1249996 4.7499984,-7.6249996 6.7499984,-7.6249996 6.7499984,-5.6249996 6.2499984,-5.6249996 6.2499984,-3.6249996 6.7499984,-3.6249996 6.7499984,-1.6249996 6.2499984,-1.6249996 6.2499984,0.3750004 6.7499984,0.3750004 6.7499984,2.3750004 6.2499984,2.3750004 6.2499984,4.3750004 6.7499984,4.3750004 6.7499984,6.3750004 6.2499984,6.3750004 6.2499984,8.375 6.7499984,8.375 6.7499984,10.375 4.7499984,10.375 4.7499984,9.875 2.7499984,9.875 2.7499984,10.375 -2.2500016,10.375 -2.2500016,9.875 -4.2500013,9.875 -4.2500013,10.375 -6.2500013,10.375 -6.2500013,8.375 -5.7500013,8.375 -5.7500013,6.375 -6.2500013,6.375 -6.2500013,4.375 -5.7500013,4.375 -5.7500013,2.375 -6.2500013,2.375 -6.2500013,0.375 -5.7500013,0.375 -5.7500013,-1.625 -6.2500013,-1.625 -6.2500013,-3.625 -5.7500013,-3.625 -5.7500013,-5.625 -6.2500013,-5.625 -6.2500013,-7.125 -6.2500013,-7.6249996 -5.75,-7.625z" transform="matrix(1,0,0,-1,6.2500013,10.375)" fill="rgb(0,0,0)" stroke-linecap="round" stroke-linejoin="round" /><path d="M0,8.375 L0,9.875 0.5,9.875 0.5,8.375 0,8.375z" transform="matrix(1,0,0,-1,6.2500013,10.375)" fill="rgb(255,255,255)" stroke="rgb(0,0,0)" stroke-width="0.0010cm" stroke-linecap="round" stroke-linejoin="round" /><path d="M0,-3.625 L0,-1.625 0.5,-1.625 0.5,-3.625 0,-3.625z" transform="matrix(1,0,0,-1,6.2500013,10.375)" fill="rgb(255,255,255)" stroke="rgb(0,0,0)" stroke-width="0.0010cm" stroke-linecap="round" stroke-linejoin="round" /><path d="M0,4.375 L0,6.375 0.5,6.375 0.5,4.375 0,4.375z" transform="matrix(1,0,0,-1,6.2500013,10.375)" fill="rgb(255,255,255)" stroke="rgb(0,0,0)" stroke-width="0.0010cm" stroke-linecap="round" stroke-linejoin="round" /><path d="M0.5,-7.125 L0,-7.125 0,-5.625 0.5,-5.625 0.5,-7.125z" transform="matrix(1,0,0,-1,6.2500013,10.375)" fill="rgb(255,255,255)" stroke="rgb(0,0,0)" stroke-width="0.0010cm" stroke-linecap="round" stroke-linejoin="round" /><path d="M-5.7500016,1.125 L-5.7500016,1.625 -4.7500016,1.625 -4.7500016,1.125 -5.7500016,1.125z" transform="matrix(1,0,0,-1,6.2500013,10.375)" fill="rgb(255,255,255)" stroke="rgb(0,0,0)" stroke-width="0.0010cm" stroke-linecap="round" stroke-linejoin="round" /><path d="M6.2499984,1.125 L5.2499984,1.125 5.2499984,1.625 6.2499984,1.625 6.2499984,1.125z" transform="matrix(1,0,0,-1,6.2500013,10.375)" fill="rgb(255,255,255)" stroke="rgb(0,0,0)" stroke-width="0.0010cm" stroke-linecap="round" stroke-linejoin="round" /><path d="M1.8749984,-0.3499996 L4.8749984,-0.3499996 4.8749984,-5.3499996 1.8749984,-5.3499996 1.8749984,-0.3499996z" transform="matrix(1,0,0,-1,6.2500013,10.375)" fill="rgb(255,255,255)" stroke="rgb(0,0,0)" stroke-width="0.0010cm" stroke-linecap="round" stroke-linejoin="round" /><path d="M0.5,-1.125 L0,-1.125 0,-0.125 0.5,-0.125 0.5,-1.125z" transform="matrix(1,0,0,-1,6.2500013,10.375)" fill="rgb(255,255,255)" stroke="rgb(0,0,0)" stroke-width="0.0010cm" stroke-linecap="round" stroke-linejoin="round" /><path d="M0.5,-5.125 L0,-5.125 0,-4.125 0.5,-4.125 0.5,-5.125z" transform="matrix(1,0,0,-1,6.2500013,10.375)" fill="rgb(255,255,255)" stroke="rgb(0,0,0)" stroke-width="0.0010cm" stroke-linecap="round" stroke-linejoin="round" /><path d="M3.2499984,1.125 L1.0999984,1.125 0.5,1.125 0.5,0.375 0,0.375 0,1.125 -0.6000016,1.125 -2.7500016,1.125 -2.7500016,1.625 -0.6000016,1.625 0,1.625 0,2.225 0.5,2.225 0.5,1.625 1.0999984,1.625 3.2499984,1.625 3.2499984,1.125z" transform="matrix(1,0,0,-1,6.2500013,10.375)" fill="rgb(255,255,255)" stroke="rgb(0,0,0)" stroke-width="0.0010cm" stroke-linecap="round" stroke-linejoin="round" /></svg>