<?xml version="1.0" encoding="utf-8"?>
<!-- Generator: Fusion 360, Shaper Origin Export Add-In, Version 1.8.0  -->
<svg xmlns="http://www.w3.org/2000/svg" xmlns:xlink="http://www.w3.org/1999/xlink" xmlns:shaper="http://www.shapertools.com/namespaces/shaper" shaper:fusionaddin="version:1.8.0" width="9.75cm" height="13cm" version="1.1" x="0cm" y="0cm" viewBox="0 0 9.75 13" enable-background="new 0 0 9.75 13" xml:space="preserve"><path d="M-2.6874998,-5.4 L-2.1874998,-5.4 -2.1875002,-6 -2.1875002,-6.5 -1.4375002,-6.5 -1.4375002,-6 0.5624998,-6 0.5624998,-6.5 2.5624998,-6.5 2.5624998,-6 4.5624998,-6 4.5624998,-6.5 6.5624998,-6.5 6.5624998,-6 7.0624998,-6 7.0624998,-5.4 -1.5875002,-5.4 -1.5875002,-0.85 7.0624998,-0.85 7.0624998,-0.25 6.5624998,-0.25 2.1874998,-0.2499984 2.1874998,0.2500016 6.5624998,0.2500016 6.5624998,1.75 7.0624998,1.75 7.0624998,3.75 6.5624998,3.75 6.5624998,6.5 4.5624998,6.5 4.5624998,6 2.5624998,6 2.5624998,6.5 0.5624998,6.5 0.5624998,6 -1.4375002,6 -1.4375002,6.5 -2.1875002,6.5 -2.1875002,6 -2.1874998,5.4 -2.6874998,5.4 -2.6875002,5 -2.1875002,5 -2.1875002,3 -2.6875002,3 -2.6875002,0.85 -2.1875002,0.85 -2.1875002,0.25 -2.6875002,0.25 -2.6875002,-0.25 -2.1875002,-0.25 -2.1875002,-0.85 -2.6875002,-0.85 -2.6875002,-3 -2.1875002,-3 -2.1875002,-5 -2.6875002,-5 -2.6874998,-5.4z" transform="matrix(1,0,0,-1,2.6875002,6.5)" fill="rgb(0,0,0)" stroke-linecap="round" stroke-linejoin="round" /></svg>