<?xml version="1.0" encoding="utf-8"?>
<!-- Generator: Fusion 360, Shaper Origin Export Add-In, Version 1.8.0  -->
<svg xmlns="http://www.w3.org/2000/svg" xmlns:xlink="http://www.w3.org/1999/xlink" xmlns:shaper="http://www.shapertools.com/namespaces/shaper" shaper:fusionaddin="version:1.8.0" width="18.9999996cm" height="13cm" version="1.1" x="0cm" y="0cm" viewBox="0 0 18.9999996 13" enable-background="new 0 0 18.9999996 13" xml:space="preserve"><path d="M8.7499996,2.5000013 L7.25,2.5 7.25,3 9.25,3 9.7499996,3.0000013 9.7499996,5.2500016 9.2499996,5.2500016 9.2499996,7.2500013 9.7499996,7.2500013 9.7499996,8.7500013 9.25,8.75 7.25,8.75 7.25,9.25 5.25,9.25 5.25,8.75 3.25,8.75 3.25,9.25 1.25,9.25 1.25,8.75 0.5,8.75 0.5,7.25 0,7.25 0,8.75 -0.75,8.75 -0.75,9.25 -2.75,9.25 -2.75,8.75 -4.75,8.75 -4.75,9.25 -6.75,9.25 -6.75,8.75 -8.75,8.75 -8.75,7.75 -9.25,7.75 -9.25,3.75 -8.75,3.75 -8.75,3 -6.75,3 -6.75,2.5 -8.75,2.5 -8.75,1.75 -9.25,1.75 -9.25,-2.25 -8.75,-2.25 -8.75,-3.25 -6.75,-3.25 -6.75,-3.75 -4.75,-3.75 -4.75,-3.25 -2.75,-3.25 -2.75,-3.75 -0.75,-3.75 -0.75,-3.25 0,-3.25 0,-1.75 0.5,-1.75 0.5,-3.25 1.25,-3.25 1.25,-3.75 3.25,-3.75 3.25,-3.25 5.25,-3.25 5.25,-3.75 7.25,-3.75 7.25,-3.25 9.25,-3.25 9.7499996,-3.2499984 9.7499996,-1.7499984 9.2499996,-1.7499984 9.2499996,0.2500016 9.7499996,0.2500016 9.7499996,2.5000013 8.7499996,2.5000013z" transform="matrix(1,0,0,-1,9.25,9.25)" fill="rgb(0,0,0)" stroke-linecap="round" stroke-linejoin="round" /><path d="M-2.75,2.5 L-4.75,2.5 -4.75,3 -2.75,3 -2.75,2.5z" transform="matrix(1,0,0,-1,9.25,9.25)" fill="rgb(255,255,255)" stroke="rgb(0,0,0)" stroke-width="0.0010cm" stroke-linecap="round" stroke-linejoin="round" /><path d="M5.25,2.5 L3.25,2.5 3.25,3 5.25,3 5.25,2.5z" transform="matrix(1,0,0,-1,9.25,9.25)" fill="rgb(255,255,255)" stroke="rgb(0,0,0)" stroke-width="0.0010cm" stroke-linecap="round" stroke-linejoin="round" /><path d="M7.75,4 L2.75,4 2.75,8 7.75,8 7.75,4z" transform="matrix(1,0,0,-1,9.25,9.25)" fill="rgb(255,255,255)" stroke="rgb(0,0,0)" stroke-width="0.0010cm" stroke-linecap="round" stroke-linejoin="round" /><path d="M0,2.5 L-0.75,2.5 -0.75,3 0,3 0,5.25 0.5,5.25 0.5,3 1.25,3 1.25,2.5 0.5,2.5 0.5,0.25 0,0.25 0,2.5z" transform="matrix(1,0,0,-1,9.25,9.25)" fill="rgb(255,255,255)" stroke="rgb(0,0,0)" stroke-width="0.0010cm" stroke-linecap="round" stroke-linejoin="round" /><path d="M7.75,-2.5 L2.75,-2.5 2.75,1.5 7.75,1.5 7.75,-2.5z" transform="matrix(1,0,0,-1,9.25,9.25)" fill="rgb(255,255,255)" stroke="rgb(0,0,0)" stroke-width="0.0010cm" stroke-linecap="round" stroke-linejoin="round" /><path d="M-8.25,4.35 L-8.25,7.4 -1.25,7.4 -1.25,4.35 -8.25,4.35z" transform="matrix(1,0,0,-1,9.25,9.25)" fill="rgb(255,255,255)" stroke="rgb(0,0,0)" stroke-width="0.0010cm" stroke-linecap="round" stroke-linejoin="round" /></svg>