<?xml version="1.0" encoding="utf-8"?>
<!-- Generator: Fusion 360, Shaper Origin Export Add-In, Version 1.8.0  -->
<svg xmlns="http://www.w3.org/2000/svg" xmlns:xlink="http://www.w3.org/1999/xlink" xmlns:shaper="http://www.shapertools.com/namespaces/shaper" shaper:fusionaddin="version:1.8.0" width="9.75cm" height="18.0000001cm" version="1.1" x="0cm" y="0cm" viewBox="0 0 9.75 18.0000001" enable-background="new 0 0 9.75 18.0000001" xml:space="preserve"><path d="M-4.5625,-0.25 L-4.5625,-3 -5.0625,-3 -5.0625,-5 -4.5625,-5 -4.5625,-7 -5.0625,-7 -5.0625,-7.9 -4.5625,-7.9 -4.5625,-9 -3.8125,-9 -3.8125,-8.5 -1.8125,-8.5 -1.8125,-9 0.1875,-9 0.1875,-8.5 2.1875,-8.5 2.1875,-9 4.1875,-9 4.1875,-8.5 4.6875,-8.5 4.6875,-7.9 -3.9625,-7.9 -3.9625,-0.85 4.6875,-0.85 4.6875,-0.25 4.1875,-0.25 4.1875,4.75 4.6875,4.75 4.6875,6.75 4.1875,6.75 4.1875,9 2.1875,9 2.1875,8.5 0.1875,8.5 0.1875,9 -1.8125,9 -1.8125,8.5 -3.8125,8.5 -3.8125,9 -4.5625,9 -4.5625,8.5 -5.0625,8.5 -5.0625,7 -4.5625,7 -4.5625,5 -5.0625,5 -5.0625,3 -4.5625,3 -4.5625,1 -5.0625,1 -5.0625,0.25 -0.1875,0.25 -0.1875,-0.25 -4.5625,-0.25z" transform="matrix(1,0,0,-1,5.0625,9)" fill="rgb(0,0,0)" stroke-linecap="round" stroke-linejoin="round" /><path d="M3.6875,5.775 L3.6875,2.975 -3.3125,2.975 -3.3125,5.775 3.6875,5.775z" transform="matrix(1,0,0,-1,5.0625,9)" fill="rgb(255,255,255)" stroke="rgb(0,0,0)" stroke-width="0.0010cm" stroke-linecap="round" stroke-linejoin="round" /></svg>