<?xml version="1.0" encoding="utf-8"?>
<!-- Generator: Fusion 360, Shaper Origin Export Add-In, Version 1.8.0  -->
<svg xmlns="http://www.w3.org/2000/svg" xmlns:xlink="http://www.w3.org/1999/xlink" xmlns:shaper="http://www.shapertools.com/namespaces/shaper" shaper:fusionaddin="version:1.8.0" width="18.9999996cm" height="18.0000001cm" version="1.1" x="0cm" y="0cm" viewBox="0 0 18.9999996 18.0000001" enable-background="new 0 0 18.9999996 18.0000001" xml:space="preserve"><path d="M-8.7499996,-2.1249999 L-7.25,-2.125 -7.25,-2.625 -8.7499996,-2.6249999 -9.7499996,-2.6249999 -9.7499996,-3.3750004 -9.2499996,-3.3750004 -9.2499996,-5.3750004 -9.7499996,-5.3750004 -9.7499996,-7.3750004 -9.2499996,-7.3750004 -9.2499996,-9.375 -9.7499996,-9.375 -9.7499996,-11.375 -8.7499996,-11.375 -7.25,-11.375 -7.25,-10.875 -5.25,-10.875 -5.25,-11.375 -3.25,-11.375 -3.25,-10.875 -1.25,-10.875 -1.25,-11.375 -0.4999998,-11.375 -0.4999998,-9.375 0.0000002,-9.375 0.0000002,-11.375 0.75,-11.375 0.75,-10.875 2.75,-10.875 2.75,-11.375 4.75,-11.375 4.75,-10.875 6.75,-10.875 6.75,-11.375 8.75,-11.375 8.75,-10.875 9.25,-10.875 9.25,-6.875 8.75,-6.875 8.75,-4.375 9.25,-4.375 9.25,-0.375 8.75,-0.375 8.75,2.625 9.25,2.625 9.25,6.125 8.75,6.125 8.75,6.625 6.75,6.625 6.75,6.125 4.75,6.125 4.75,6.625 2.75,6.625 2.75,6.125 0.75,6.125 0.75,6.625 0,6.625 0,4.625 -0.5,4.625 -0.5,6.625 -1.25,6.625 -1.25,6.125 -3.25,6.125 -3.25,6.625 -5.25,6.625 -5.25,6.125 -7.25,6.125 -7.25,6.625 -8.7499996,6.6249996 -9.7499996,6.6249996 -9.7499996,4.6249996 -9.2499996,4.6249996 -9.2499996,2.6249996 -9.7499996,2.6249996 -9.7499996,0.6249996 -9.2499996,0.6249996 -9.2499996,-1.3750004 -9.7499996,-1.3750004 -9.7499996,-2.1249999 -8.7499996,-2.1249999z" transform="matrix(1,0,0,-1,9.7499996,6.625)" fill="rgb(0,0,0)" stroke-linecap="round" stroke-linejoin="round" /><path d="M-5.25,-2.125 L-3.25,-2.125 -3.25,-2.625 -5.25,-2.625 -5.25,-2.125z" transform="matrix(1,0,0,-1,9.7499996,6.625)" fill="rgb(255,255,255)" stroke="rgb(0,0,0)" stroke-width="0.0010cm" stroke-linecap="round" stroke-linejoin="round" /><path d="M4.75,-2.625 L2.75,-2.625 2.75,-2.125 4.75,-2.125 4.75,-2.625z" transform="matrix(1,0,0,-1,9.7499996,6.625)" fill="rgb(255,255,255)" stroke="rgb(0,0,0)" stroke-width="0.0010cm" stroke-linecap="round" stroke-linejoin="round" /><path d="M0,-3.375 L-0.5,-3.375 -0.5,-2.625 -1.25,-2.625 -1.25,-2.125 -0.5,-2.125 -0.5,-1.375 0,-1.375 0,-2.125 0.75,-2.125 0.75,-2.625 0,-2.625 0,-3.375z" transform="matrix(1,0,0,-1,9.7499996,6.625)" fill="rgb(255,255,255)" stroke="rgb(0,0,0)" stroke-width="0.0010cm" stroke-linecap="round" stroke-linejoin="round" /><path d="M8.75,-2.625 L6.75,-2.625 6.75,-2.125 8.75,-2.125 8.75,-2.625z" transform="matrix(1,0,0,-1,9.7499996,6.625)" fill="rgb(255,255,255)" stroke="rgb(0,0,0)" stroke-width="0.0010cm" stroke-linecap="round" stroke-linejoin="round" /><path d="M-0.5,2.625 L0,2.625 0,0.625 -0.5,0.625 -0.5,2.625z" transform="matrix(1,0,0,-1,9.7499996,6.625)" fill="rgb(255,255,255)" stroke="rgb(0,0,0)" stroke-width="0.0010cm" stroke-linecap="round" stroke-linejoin="round" /><path d="M1.25,4.125 L6.25,4.125 6.25,0.125 1.25,0.125 1.25,4.125z" transform="matrix(1,0,0,-1,9.7499996,6.625)" fill="rgb(255,255,255)" stroke="rgb(0,0,0)" stroke-width="0.0010cm" stroke-linecap="round" stroke-linejoin="round" /><path d="M1.25,-4.325 L6.25,-4.325 6.25,-6.325 1.25,-6.325 1.25,-4.325z" transform="matrix(1,0,0,-1,9.7499996,6.625)" fill="rgb(255,255,255)" stroke="rgb(0,0,0)" stroke-width="0.0010cm" stroke-linecap="round" stroke-linejoin="round" /><path d="M-7.75,-4.325 L-2.75,-4.325 -2.75,-6.325 -7.75,-6.325 -7.75,-4.325z" transform="matrix(1,0,0,-1,9.7499996,6.625)" fill="rgb(255,255,255)" stroke="rgb(0,0,0)" stroke-width="0.0010cm" stroke-linecap="round" stroke-linejoin="round" /><path d="M-3.25,2.625 L-7.75,2.625 -7.75,5.425 -3.25,5.425 -3.25,2.625z" transform="matrix(1,0,0,-1,9.7499996,6.625)" fill="rgb(255,255,255)" stroke="rgb(0,0,0)" stroke-width="0.0010cm" stroke-linecap="round" stroke-linejoin="round" /><path d="M1.25,-7.175 L6.25,-7.175 6.25,-9.175 1.25,-9.175 1.25,-7.175z" transform="matrix(1,0,0,-1,9.7499996,6.625)" fill="rgb(255,255,255)" stroke="rgb(0,0,0)" stroke-width="0.0010cm" stroke-linecap="round" stroke-linejoin="round" /><path d="M-7.75,-7.175 L-2.75,-7.175 -2.75,-9.175 -7.75,-9.175 -7.75,-7.175z" transform="matrix(1,0,0,-1,9.7499996,6.625)" fill="rgb(255,255,255)" stroke="rgb(0,0,0)" stroke-width="0.0010cm" stroke-linecap="round" stroke-linejoin="round" /><path d="M-7.75,1.575 L-3.25,1.575 -3.25,-1.425 -7.75,-1.425 -7.75,1.575z" transform="matrix(1,0,0,-1,9.7499996,6.625)" fill="rgb(255,255,255)" stroke="rgb(0,0,0)" stroke-width="0.0010cm" stroke-linecap="round" stroke-linejoin="round" /><path d="M-0.4999998,-5.375 L0.0000002,-5.375 0.0000002,-7.375 -0.4999998,-7.375 -0.4999998,-5.375z" transform="matrix(1,0,0,-1,9.7499996,6.625)" fill="rgb(255,255,255)" stroke="rgb(0,0,0)" stroke-width="0.0010cm" stroke-linecap="round" stroke-linejoin="round" /></svg>