<?xml version="1.0" encoding="utf-8"?>
<!-- Generator: Fusion 360, Shaper Origin Export Add-In, Version 1.8.0  -->
<svg xmlns="http://www.w3.org/2000/svg" xmlns:xlink="http://www.w3.org/1999/xlink" xmlns:shaper="http://www.shapertools.com/namespaces/shaper" shaper:fusionaddin="version:1.8.0" width="18.9999996cm" height="18.0000001cm" version="1.1" x="0cm" y="0cm" viewBox="0 0 18.9999996 18.0000001" enable-background="new 0 0 18.9999996 18.0000001" xml:space="preserve"><path d="M9.25,-4.375 L9.2499996,-2.375 9.7499996,-2.375 9.7499996,-1.625 9.25,-1.625 7.25,-1.625 7.25,-1.125 9.25,-1.125 9.7499996,-1.125 9.7499996,-0.375 9.2499996,-0.375 9.25,1.625 9.7499996,1.625 9.7499996,3.625 9.25,3.625 9.2499996,5.625 9.7499996,5.625 9.7499996,7.625 9.25,7.625 7.25,7.625 7.25,7.125 5.25,7.125 5.25,7.625 3.25,7.625 3.25,7.125 1.25,7.125 1.25,7.625 0.5,7.625 0.5,5.625 0,5.625 0,7.625 -0.75,7.625 -0.75,7.125 -2.75,7.125 -2.75,7.625 -4.75,7.625 -4.75,7.125 -6.75,7.125 -6.75,7.625 -8.75,7.625 -8.75,7.125 -9.25,7.125 -9.25,3.625 -8.75,3.625 -8.75,0.625 -9.25,0.625 -9.25,-3.375 -8.75,-3.375 -8.75,-6.375 -9.25,-6.375 -9.25,-9.875 -8.75,-9.8750001 -8.75,-10.375 -6.7500001,-10.375 -6.7500001,-9.8750001 -4.7500001,-9.8750001 -4.7500001,-10.375 -2.7500002,-10.375 -2.7500002,-9.8750001 -0.7500002,-9.8750001 -0.7500002,-10.375 0,-10.375 0,-8.375 0.5,-8.375 0.5,-10.375 1.2499997,-10.375 1.2499997,-9.8750001 3.2499997,-9.8750001 3.2499997,-10.375 5.2499997,-10.375 5.2499997,-9.8750001 7.2499996,-9.875 7.2499996,-10.375 9.25,-10.375 9.7499996,-10.375 9.7499996,-8.375 9.2499996,-8.375 9.25,-6.375 9.7499996,-6.375 9.7499996,-4.375 9.25,-4.375z" transform="matrix(1,0,0,-1,9.25,7.625)" fill="rgb(0,0,0)" stroke-linecap="round" stroke-linejoin="round" /><path d="M0,-1.625 L-0.75,-1.625 -0.75,-1.125 0,-1.125 0,-0.375 0.5,-0.375 0.5,-1.125 1.25,-1.125 1.25,-1.625 0.5,-1.625 0.5,-2.375 0,-2.375 0,-1.625z" transform="matrix(1,0,0,-1,9.25,7.625)" fill="rgb(255,255,255)" stroke="rgb(0,0,0)" stroke-width="0.0010cm" stroke-linecap="round" stroke-linejoin="round" /><path d="M0.5,1.625 L0,1.625 0,3.625 0.5,3.625 0.5,1.625z" transform="matrix(1,0,0,-1,9.25,7.625)" fill="rgb(255,255,255)" stroke="rgb(0,0,0)" stroke-width="0.0010cm" stroke-linecap="round" stroke-linejoin="round" /><path d="M-4.75,-1.125 L-2.75,-1.125 -2.75,-1.625 -4.75,-1.625 -4.75,-1.125z" transform="matrix(1,0,0,-1,9.25,7.625)" fill="rgb(255,255,255)" stroke="rgb(0,0,0)" stroke-width="0.0010cm" stroke-linecap="round" stroke-linejoin="round" /><path d="M5.25,-1.625 L3.25,-1.625 3.25,-1.125 5.25,-1.125 5.25,-1.625z" transform="matrix(1,0,0,-1,9.25,7.625)" fill="rgb(255,255,255)" stroke="rgb(0,0,0)" stroke-width="0.0010cm" stroke-linecap="round" stroke-linejoin="round" /><path d="M0.5,-6.375 L0,-6.375 0,-4.375 0.5,-4.375 0.5,-6.375z" transform="matrix(1,0,0,-1,9.25,7.625)" fill="rgb(255,255,255)" stroke="rgb(0,0,0)" stroke-width="0.0010cm" stroke-linecap="round" stroke-linejoin="round" /><path d="M-8.75,-1.125 L-6.75,-1.125 -6.75,-1.625 -8.75,-1.625 -8.75,-1.125z" transform="matrix(1,0,0,-1,9.25,7.625)" fill="rgb(255,255,255)" stroke="rgb(0,0,0)" stroke-width="0.0010cm" stroke-linecap="round" stroke-linejoin="round" /><path d="M-1.45,-5.075 L-6.45,-5.075 -6.45,-3.075 -1.45,-3.075 -1.45,-5.075z" transform="matrix(1,0,0,-1,9.25,7.625)" fill="rgb(255,255,255)" stroke="rgb(0,0,0)" stroke-width="0.0010cm" stroke-linecap="round" stroke-linejoin="round" /><path d="M7.55,3.425 L2.55,3.425 2.55,5.425 7.55,5.425 7.55,3.425z" transform="matrix(1,0,0,-1,9.25,7.625)" fill="rgb(255,255,255)" stroke="rgb(0,0,0)" stroke-width="0.0010cm" stroke-linecap="round" stroke-linejoin="round" /><path d="M7.55,-7.875 L2.55,-7.875 2.55,-3.875 7.55,-3.875 7.55,-7.875z" transform="matrix(1,0,0,-1,9.25,7.625)" fill="rgb(255,255,255)" stroke="rgb(0,0,0)" stroke-width="0.0010cm" stroke-linecap="round" stroke-linejoin="round" /><path d="M7.55,0.575 L2.55,0.575 2.55,2.575 7.55,2.575 7.55,0.575z" transform="matrix(1,0,0,-1,9.25,7.625)" fill="rgb(255,255,255)" stroke="rgb(0,0,0)" stroke-width="0.0010cm" stroke-linecap="round" stroke-linejoin="round" /><path d="M-1.45,-7.925 L-6.45,-7.925 -6.45,-5.925 -1.45,-5.925 -1.45,-7.925z" transform="matrix(1,0,0,-1,9.25,7.625)" fill="rgb(255,255,255)" stroke="rgb(0,0,0)" stroke-width="0.0010cm" stroke-linecap="round" stroke-linejoin="round" /></svg>