<?xml version="1.0" encoding="utf-8"?>
<!-- Generator: Fusion 360, Shaper Origin Export Add-In, Version 1.8.0  -->
<svg xmlns="http://www.w3.org/2000/svg" xmlns:xlink="http://www.w3.org/1999/xlink" xmlns:shaper="http://www.shapertools.com/namespaces/shaper" shaper:fusionaddin="version:1.8.0" width="9.7499997cm" height="18.0000001cm" version="1.1" x="0cm" y="0cm" viewBox="0 0 9.7499997 18.0000001" enable-background="new 0 0 9.7499997 18.0000001" xml:space="preserve"><path d="M-4.3749999,8.9999995 L-4.8749999,8.9999995 -4.8749998,6.9999995 -4.3749998,6.9999995 -4.3749998,4.9999999 -4.8749998,4.9999999 -4.8749998,2.9999999 -4.3749998,2.9999999 -4.3749998,0.9999999 -4.8749998,0.9999999 -4.8749998,0.25 -4.3750002,0.25 -0.0000002,0.25 -0.0000002,-0.25 -4.3750002,-0.25 -4.8749998,-0.25 -4.8749998,-1.0000001 -4.3749998,-1.0000001 -4.3749998,-3.0000001 -4.8749998,-3.0000001 -4.8749997,-5.0000001 -4.3749997,-5.0000001 -4.3749997,-7.0000001 -4.8749997,-7.0000001 -4.8749997,-9.0000001 -4.3750001,-9 -2.3750001,-9 -2.3750002,-8.5 -0.3750002,-8.5 -0.3750001,-9 1.6249999,-9 1.6249998,-8.5 3.6249998,-8.4999999 3.6249999,-8.9999999 4.3749999,-8.9999999 4.3749998,-8.4999999 4.8749998,-8.5 4.8749998,-7.9 -3.7750002,-7.9 -3.7750002,-0.85 4.8749998,-0.85 4.8749998,-0.25 4.3749998,-0.25 4.3749998,1.5 4.8749998,1.5 4.8749998,2.5 4.3749998,2.5 4.3749997,5.5 4.8749997,5.5 4.8749997,6.5 4.3749997,6.5 4.3749997,9.0000001 3.6249997,9.0000001 3.6249997,8.5000001 1.6249997,8.5 1.6249997,9 -0.3750003,9 -0.3750003,8.5 -2.3750003,8.5 -2.3750003,9 -4.3749999,8.9999995z" transform="matrix(1,0,0,-1,4.8749999,9.0000001)" fill="rgb(0,0,0)" stroke-linecap="round" stroke-linejoin="round" /></svg>