<?xml version="1.0" encoding="utf-8"?>
<!-- Generator: Fusion 360, Shaper Origin Export Add-In, Version 1.8.0  -->
<svg xmlns="http://www.w3.org/2000/svg" xmlns:xlink="http://www.w3.org/1999/xlink" xmlns:shaper="http://www.shapertools.com/namespaces/shaper" shaper:fusionaddin="version:1.8.0" width="9.75cm" height="13cm" version="1.1" x="0cm" y="0cm" viewBox="0 0 9.75 13" enable-background="new 0 0 9.75 13" xml:space="preserve"><path d="M-1.8875,-5.4 L-1.8875,-0.85 6.7625,-0.85 6.7625,-0.25 1.8875,-0.25 1.8875,0.25 6.7625,0.25 6.7625,0.85 -1.8875,0.85 -1.8875,5.4 6.7625,5.4 6.7625,6 6.2625,6 6.2625,6.5 5.5125,6.5 5.5125,6 3.5125,6 3.5125,6.5 1.5125,6.5 1.5125,6 -0.4875,6 -0.4875,6.5 -2.9875,6.5 -2.9875,4.5 -2.4875,4.5 -2.4875,2.5 -2.9875,2.5 -2.9875,-2.5 -2.4875,-2.5 -2.4875,-4.5 -2.9875,-4.5 -2.9875,-6.5 -0.4875,-6.5 -0.4875,-6 1.5125,-6 1.5125,-6.5 3.5125,-6.5 3.5125,-6 5.5125,-6 5.5125,-6.5 6.2625,-6.5 6.2625,-6 6.7625,-6 6.7625,-5.4 -1.8875,-5.4z" transform="matrix(1,0,0,-1,2.9875,6.5)" fill="rgb(0,0,0)" stroke-linecap="round" stroke-linejoin="round" /></svg>