<?xml version="1.0" encoding="utf-8"?>
<!-- Generator: Fusion 360, Shaper Origin Export Add-In, Version 1.8.0  -->
<svg xmlns="http://www.w3.org/2000/svg" xmlns:xlink="http://www.w3.org/1999/xlink" xmlns:shaper="http://www.shapertools.com/namespaces/shaper" shaper:fusionaddin="version:1.8.0" width="14.9999997cm" height="20cm" version="1.1" x="0cm" y="0cm" viewBox="0 0 14.9999997 20" enable-background="new 0 0 14.9999997 20" xml:space="preserve"><g id="Body_Body84"><path d="M71.4999984,-21.5 L71.4999984,-21 69.4999984,-21 69.4999984,-21.5 62.4999987,-21.5 62.4999987,-21 60.4999987,-21 60.4999987,-21.5 58.4999987,-21.4999995 58.4999987,-19.4999995 58.9999987,-19.4999995 58.9999987,-17.4999995 58.4999987,-17.4999995 58.4999987,-5.5 58.9999987,-5.5 58.9999987,-3.5 58.4999987,-3.5 58.4999987,-1.5 60.4999987,-1.5 60.4999987,-2 62.4999987,-2 62.4999987,-1.5 69.4999987,-1.5 69.4999987,-2 71.4999987,-2 71.4999987,-1.5 73.4999984,-1.5 73.4999984,-3.4999999 72.9999984,-3.4999999 72.9999984,-5.4999999 73.4999984,-5.4999999 73.4999984,-17.4999995 72.9999984,-17.4999995 72.9999984,-19.4999995 73.4999984,-19.4999995 73.4999984,-21.4999995 71.4999984,-21.5z" transform="matrix(1,0,0,-1,-58.4999987,-1.5)" fill="rgb(0,0,0)" shaper:cutDepth="0.5cm" stroke-linecap="round" stroke-linejoin="round" /><path d="M71.9999984,-19.9999999 L70.4999984,-19.9999999 70.4999984,-20.4999999 72.4999984,-20.4999999 72.4999984,-18.4999999 71.9999984,-18.4999999 71.9999984,-19.9999999z" transform="matrix(1,0,0,-1,-58.4999987,-1.5)" fill="rgb(255,255,255)" stroke="rgb(0,0,0)" stroke-width="0.0010cm" stroke-linecap="round" stroke-linejoin="round" shaper:cutDepth="0.5cm" /><path d="M65.7499987,-14.4999999 L65.7499987,-16.4999999 66.2499987,-16.4999999 66.2499987,-14.4999999 65.7499987,-14.4999999z" transform="matrix(1,0,0,-1,-58.4999987,-1.5)" fill="rgb(255,255,255)" stroke="rgb(0,0,0)" stroke-width="0.0010cm" stroke-linecap="round" stroke-linejoin="round" shaper:cutDepth="0.5cm" /><path d="M59.4999987,-10.4999995 L59.4999987,-11.25 59.4999987,-11.75 59.4999987,-12.4999995 59.9999987,-12.4999995 59.9999987,-11.75 61.4999984,-11.75 61.4999984,-11.25 59.9999987,-11.25 59.9999987,-10.4999995 59.4999987,-10.4999995z" transform="matrix(1,0,0,-1,-58.4999987,-1.5)" fill="rgb(255,255,255)" stroke="rgb(0,0,0)" stroke-width="0.0010cm" stroke-linecap="round" stroke-linejoin="round" shaper:cutDepth="0.5cm" /><path d="M71.9999986,-2.9999999 L71.9999986,-4.4999999 72.4999986,-4.4999999 72.4999986,-2.4999999 70.4999986,-2.4999999 70.4999986,-2.9999999 71.9999986,-2.9999999z" transform="matrix(1,0,0,-1,-58.4999987,-1.5)" fill="rgb(255,255,255)" stroke="rgb(0,0,0)" stroke-width="0.0010cm" stroke-linecap="round" stroke-linejoin="round" shaper:cutDepth="0.5cm" /><path d="M65.7499987,-2.9999999 L65.7499987,-4.4999999 66.2499987,-4.4999999 66.2499987,-2.9999999 68.4999986,-2.9999999 68.4999986,-2.4999999 63.4999986,-2.4999999 63.4999986,-2.9999999 65.7499987,-2.9999999z" transform="matrix(1,0,0,-1,-58.4999987,-1.5)" fill="rgb(255,255,255)" stroke="rgb(0,0,0)" stroke-width="0.0010cm" stroke-linecap="round" stroke-linejoin="round" shaper:cutDepth="0.5cm" /><path d="M59.4999987,-6.4999995 L59.4999987,-8.4999995 59.9999987,-8.4999995 59.9999987,-6.4999995 59.4999987,-6.4999995z" transform="matrix(1,0,0,-1,-58.4999987,-1.5)" fill="rgb(255,255,255)" stroke="rgb(0,0,0)" stroke-width="0.0010cm" stroke-linecap="round" stroke-linejoin="round" shaper:cutDepth="0.5cm" /><path d="M71.9999984,-14.4999999 L71.9999984,-16.4999999 72.4999984,-16.4999999 72.4999984,-14.4999999 71.9999984,-14.4999999z" transform="matrix(1,0,0,-1,-58.4999987,-1.5)" fill="rgb(255,255,255)" stroke="rgb(0,0,0)" stroke-width="0.0010cm" stroke-linecap="round" stroke-linejoin="round" shaper:cutDepth="0.5cm" /><path d="M66.2499987,-19.9999996 L66.2499987,-18.4999996 65.7499987,-18.4999996 65.7499987,-19.9999996 63.4999984,-19.9999996 63.4999984,-20.4999996 68.4999984,-20.4999996 68.4999984,-19.9999996 66.2499987,-19.9999996z" transform="matrix(1,0,0,-1,-58.4999987,-1.5)" fill="rgb(255,255,255)" stroke="rgb(0,0,0)" stroke-width="0.0010cm" stroke-linecap="round" stroke-linejoin="round" shaper:cutDepth="0.5cm" /><path d="M59.4999987,-14.4999995 L59.4999987,-16.4999995 59.9999987,-16.4999995 59.9999987,-14.4999995 59.4999987,-14.4999995z" transform="matrix(1,0,0,-1,-58.4999987,-1.5)" fill="rgb(255,255,255)" stroke="rgb(0,0,0)" stroke-width="0.0010cm" stroke-linecap="round" stroke-linejoin="round" shaper:cutDepth="0.5cm" /><path d="M63.4999984,-11.25 L63.4999984,-11.75 65.7499987,-11.75 65.7499987,-12.4999999 66.2499987,-12.4999999 66.2499987,-11.75 68.4999984,-11.75 68.4999984,-11.25 66.2499987,-11.25 66.2499987,-10.4999999 65.7499987,-10.4999999 65.7499987,-11.25 63.4999984,-11.25z" transform="matrix(1,0,0,-1,-58.4999987,-1.5)" fill="rgb(255,255,255)" stroke="rgb(0,0,0)" stroke-width="0.0010cm" stroke-linecap="round" stroke-linejoin="round" shaper:cutDepth="0.5cm" /><path d="M65.7499987,-6.4999999 L65.7499987,-8.4999999 66.2499987,-8.4999999 66.2499987,-6.4999999 65.7499987,-6.4999999z" transform="matrix(1,0,0,-1,-58.4999987,-1.5)" fill="rgb(255,255,255)" stroke="rgb(0,0,0)" stroke-width="0.0010cm" stroke-linecap="round" stroke-linejoin="round" shaper:cutDepth="0.5cm" /><path d="M59.9999987,-2.9999999 L61.4999987,-2.9999999 61.4999987,-2.4999999 59.4999987,-2.4999999 59.4999987,-4.4999999 59.9999987,-4.4999999 59.9999987,-2.9999999z" transform="matrix(1,0,0,-1,-58.4999987,-1.5)" fill="rgb(255,255,255)" stroke="rgb(0,0,0)" stroke-width="0.0010cm" stroke-linecap="round" stroke-linejoin="round" shaper:cutDepth="0.5cm" /><path d="M71.9999984,-8.4999999 L72.4999984,-8.4999999 72.4999984,-6.4999999 71.9999984,-6.4999999 71.9999984,-8.4999999z" transform="matrix(1,0,0,-1,-58.4999987,-1.5)" fill="rgb(255,255,255)" stroke="rgb(0,0,0)" stroke-width="0.0010cm" stroke-linecap="round" stroke-linejoin="round" shaper:cutDepth="0.5cm" /><path d="M71.9999984,-12.4999999 L72.4999984,-12.4999999 72.4999984,-10.4999999 71.9999984,-10.4999999 71.9999984,-11.25 70.4999984,-11.25 70.4999984,-11.75 71.9999984,-11.75 71.9999984,-12.4999999z" transform="matrix(1,0,0,-1,-58.4999987,-1.5)" fill="rgb(255,255,255)" stroke="rgb(0,0,0)" stroke-width="0.0010cm" stroke-linecap="round" stroke-linejoin="round" shaper:cutDepth="0.5cm" /><path d="M59.4999987,-18.4999995 L59.4999987,-20.4999995 61.4999987,-20.4999995 61.4999987,-19.9999995 59.9999987,-19.9999995 59.9999987,-18.4999995 59.4999987,-18.4999995z" transform="matrix(1,0,0,-1,-58.4999987,-1.5)" fill="rgb(255,255,255)" stroke="rgb(0,0,0)" stroke-width="0.0010cm" stroke-linecap="round" stroke-linejoin="round" shaper:cutDepth="0.5cm" /></g></svg>