<?xml version="1.0" encoding="utf-8"?>
<!-- Generator: Fusion 360, Shaper Origin Export Add-In, Version 1.8.0  -->
<svg xmlns="http://www.w3.org/2000/svg" xmlns:xlink="http://www.w3.org/1999/xlink" xmlns:shaper="http://www.shapertools.com/namespaces/shaper" shaper:fusionaddin="version:1.8.0" width="16.0000009cm" height="38.9599996cm" version="1.1" x="0cm" y="0cm" viewBox="0 0 16.0000009 38.9599996" enable-background="new 0 0 16.0000009 38.9599996" xml:space="preserve"><path d="M8.0000004,19.4799998 L-7.9999996,19.4799998 -8.0000004,17.5200011 -7.6000004,17.5200011 -7.6000004,16.5200011 -8.0000004,16.5200011 -8.0000004,11.5200011 -7.6000004,11.5200011 -7.6000004,10.5200011 -8.0000004,10.5200011 -8.0000004,5.5200011 -7.6000004,5.5200011 -7.6000004,4.5200011 -8.0000004,4.5200011 -8.0000004,-0.4799989 -7.6000004,-0.4799989 -7.6000004,-1.4799989 -8.0000004,-1.4799989 -8.0000004,-6.4799989 -7.6000004,-6.4799989 -7.6000004,-7.4799989 -8.0000004,-7.4799989 -8.0000004,-12.4799989 -7.6000004,-12.4799989 -7.6000004,-13.4799989 -8.0000004,-13.4799989 -8.0000004,-18.4799989 -7.6000004,-18.4799989 -7.6000001,-19.4799998 -5.4000001,-19.4799998 -5.4000004,-18.4799989 -5.0000004,-18.4799989 -5.0000001,-19.4799998 4.9999996,-19.4799989 4.9999996,-18.4799989 5.3999996,-18.4799989 5.3999996,-19.4799989 7.5999996,-19.4799989 7.5999996,-18.4799989 7.9999996,-18.4799989 7.9999996,-13.4799989 7.5999996,-13.4799989 7.5999996,-12.4799989 7.9999996,-12.4799989 7.9999996,-7.4799989 7.5999996,-7.4799989 7.5999996,-6.4799989 7.9999996,-6.4799989 7.9999996,-1.4799989 7.5999996,-1.4799989 7.5999996,-0.4799989 7.9999996,-0.4799989 7.9999996,4.5200011 7.5999996,4.5200011 7.5999996,5.5200011 7.9999996,5.5200011 7.9999996,10.5200011 7.5999996,10.5200011 7.5999996,11.5200011 7.9999996,11.5200011 7.9999996,16.5200011 7.5999996,16.5200011 7.5999996,17.5200011 7.9999996,17.5200011 8.0000004,19.4799998z" transform="matrix(1,0,0,-1,8.0000004,19.4799998)" fill="rgb(0,0,0)" stroke-linecap="round" stroke-linejoin="round" /><path d="M5.3999996,10.5200011 L4.9999996,10.5200011 4.9999996,11.5200011 5.3999996,11.5200011 5.3999996,10.5200011z" transform="matrix(1,0,0,-1,8.0000004,19.4799998)" fill="rgb(255,255,255)" stroke="rgb(0,0,0)" stroke-width="0.0010cm" stroke-linecap="round" stroke-linejoin="round" /><path d="M-5.0000004,-6.4799989 L-5.0000004,-7.4799989 -5.4000004,-7.4799989 -5.4000004,-6.4799989 -5.0000004,-6.4799989z" transform="matrix(1,0,0,-1,8.0000004,19.4799998)" fill="rgb(255,255,255)" stroke="rgb(0,0,0)" stroke-width="0.0010cm" stroke-linecap="round" stroke-linejoin="round" /><path d="M-5.0000004,5.5200011 L-5.0000004,4.5200011 -5.4000004,4.5200011 -5.4000004,5.5200011 -5.0000004,5.5200011z" transform="matrix(1,0,0,-1,8.0000004,19.4799998)" fill="rgb(255,255,255)" stroke="rgb(0,0,0)" stroke-width="0.0010cm" stroke-linecap="round" stroke-linejoin="round" /><path d="M-5.0000004,17.5200011 L-5.0000004,16.5200011 -5.4000004,16.5200011 -5.4000004,17.5200011 -5.0000004,17.5200011z" transform="matrix(1,0,0,-1,8.0000004,19.4799998)" fill="rgb(255,255,255)" stroke="rgb(0,0,0)" stroke-width="0.0010cm" stroke-linecap="round" stroke-linejoin="round" /><path d="M-5.0000004,11.5200011 L-5.0000004,10.5200011 -5.4000004,10.5200011 -5.4000004,11.5200011 -5.0000004,11.5200011z" transform="matrix(1,0,0,-1,8.0000004,19.4799998)" fill="rgb(255,255,255)" stroke="rgb(0,0,0)" stroke-width="0.0010cm" stroke-linecap="round" stroke-linejoin="round" /><path d="M-5.0000004,-0.4799989 L-5.0000004,-1.4799989 -5.4000004,-1.4799989 -5.4000004,-0.4799989 -5.0000004,-0.4799989z" transform="matrix(1,0,0,-1,8.0000004,19.4799998)" fill="rgb(255,255,255)" stroke="rgb(0,0,0)" stroke-width="0.0010cm" stroke-linecap="round" stroke-linejoin="round" /><path d="M-5.0000004,-12.4799989 L-5.0000004,-13.4799989 -5.4000004,-13.4799989 -5.4000004,-12.4799989 -5.0000004,-12.4799989z" transform="matrix(1,0,0,-1,8.0000004,19.4799998)" fill="rgb(255,255,255)" stroke="rgb(0,0,0)" stroke-width="0.0010cm" stroke-linecap="round" stroke-linejoin="round" /><path d="M5.3999996,-1.4799989 L4.9999996,-1.4799989 4.9999996,-0.4799989 5.3999996,-0.4799989 5.3999996,-1.4799989z" transform="matrix(1,0,0,-1,8.0000004,19.4799998)" fill="rgb(255,255,255)" stroke="rgb(0,0,0)" stroke-width="0.0010cm" stroke-linecap="round" stroke-linejoin="round" /><path d="M5.3999996,-13.4799989 L4.9999996,-13.4799989 4.9999996,-12.4799989 5.3999996,-12.4799989 5.3999996,-13.4799989z" transform="matrix(1,0,0,-1,8.0000004,19.4799998)" fill="rgb(255,255,255)" stroke="rgb(0,0,0)" stroke-width="0.0010cm" stroke-linecap="round" stroke-linejoin="round" /><path d="M5.3999996,4.5200011 L4.9999996,4.5200011 4.9999996,5.5200011 5.3999996,5.5200011 5.3999996,4.5200011z" transform="matrix(1,0,0,-1,8.0000004,19.4799998)" fill="rgb(255,255,255)" stroke="rgb(0,0,0)" stroke-width="0.0010cm" stroke-linecap="round" stroke-linejoin="round" /><path d="M5.3999996,-7.4799989 L4.9999996,-7.4799989 4.9999996,-6.4799989 5.3999996,-6.4799989 5.3999996,-7.4799989z" transform="matrix(1,0,0,-1,8.0000004,19.4799998)" fill="rgb(255,255,255)" stroke="rgb(0,0,0)" stroke-width="0.0010cm" stroke-linecap="round" stroke-linejoin="round" /><path d="M5.3999996,16.5200011 L4.9999996,16.5200011 4.9999996,17.5200011 5.3999996,17.5200011 5.3999996,16.5200011z" transform="matrix(1,0,0,-1,8.0000004,19.4799998)" fill="rgb(255,255,255)" stroke="rgb(0,0,0)" stroke-width="0.0010cm" stroke-linecap="round" stroke-linejoin="round" /></svg>