<?xml version="1.0" encoding="utf-8"?>
<!-- Generator: Fusion 360, Shaper Origin Export Add-In, Version 1.8.0  -->
<svg xmlns="http://www.w3.org/2000/svg" xmlns:xlink="http://www.w3.org/1999/xlink" xmlns:shaper="http://www.shapertools.com/namespaces/shaper" shaper:fusionaddin="version:1.8.0" width="41.5cm" height="36.0400014cm" version="1.1" x="0cm" y="0cm" viewBox="0 0 41.5 36.0400014" enable-background="new 0 0 41.5 36.0400014" xml:space="preserve"><path d="M-4.25,7.9999999 L-20.75,7.9999999 -20.7499991,4.9599986 -20.3499991,4.9599986 -20.3499991,3.9599986 -20.7499991,3.9599986 -20.7499991,-1.0400014 -20.3499991,-1.0400014 -20.3499991,-2.0400014 -20.7499991,-2.0400014 -20.7499991,-7.0400014 -20.3499991,-7.0400014 -20.3499991,-8.0400014 -20.7499991,-8.0400014 -20.749999,-13.0400014 -20.349999,-13.0400014 -20.349999,-14.0400014 -20.749999,-14.0400014 -20.749999,-19.0400014 -20.349999,-19.0400014 -20.349999,-20.0400014 -20.749999,-20.0400014 -20.749999,-25.0400014 -20.349999,-25.0400014 -20.349999,-26.0400014 -20.749999,-26.0400014 -20.749999,-28.0400014 -4.7499999,-28.0400013 -4.7499999,-27.0000001 -5.1499999,-27.0000001 -5.1499999,-26.0000001 -4.7500005,-26.0000001 -4.75,-21.0000001 -5.1499999,-21.0000001 -5.1499999,-20.0000001 -4.75,-20.0000001 -4.75,-15.0000001 -5.15,-15.0000001 -5.15,-14.0000001 -4.75,-14.0000001 -4.75,-9.0000001 -5.15,-9.0000001 -5.15,-8.0000001 -4.25,-8.0000001 -4.25,-7.6000001 -3.25,-7.6000001 -3.25,-8.0000001 1.75,-8 1.75,-7.6 2.75,-7.6 2.75,-8 7.75,-8 7.75,-7.6 8.75,-7.6 8.75,-8 13.75,-8 13.75,-7.6 14.75,-7.6 14.75,-8 19.75,-8 19.75,-7.6 20.75,-7.6 20.75,-5.4 19.75,-5.4 19.75,-5 20.75,-5 20.75,4.9999997 19.75,5 19.75,5.4 20.75,5.3999997 20.75,7.5999997 19.75,7.6 19.75,8 14.75,8 14.75,7.6 13.75,7.6 13.75,8 8.75,8 8.75,7.6 7.75,7.6 7.75,8 2.75,8 2.75,7.6 1.75,7.6 1.75,8 -3.25,7.9999999 -3.25,7.5999999 -4.25,7.5999999 -4.25,7.9999999z" transform="matrix(1,0,0,-1,20.75,8)" fill="rgb(0,0,0)" stroke-linecap="round" stroke-linejoin="round" /><path d="M-18.149999,-26.0400013 L-18.149999,-25.0400013 -17.749999,-25.0400013 -17.749999,-26.0400013 -18.149999,-26.0400013z" transform="matrix(1,0,0,-1,20.75,8)" fill="rgb(255,255,255)" stroke="rgb(0,0,0)" stroke-width="0.0010cm" stroke-linecap="round" stroke-linejoin="round" /><path d="M-7.7499993,-14.0000001 L-7.3499993,-14.0000001 -7.35,-15.0000001 -7.7499993,-15.0000001 -7.7499993,-14.0000001z" transform="matrix(1,0,0,-1,20.75,8)" fill="rgb(255,255,255)" stroke="rgb(0,0,0)" stroke-width="0.0010cm" stroke-linecap="round" stroke-linejoin="round" /><path d="M-7.7499994,-7.5000001 L-7.7499994,-6.5000001 -7.35,-6.5000001 -7.35,-7.5000001 -7.7499994,-7.5000001z" transform="matrix(1,0,0,-1,20.75,8)" fill="rgb(255,255,255)" stroke="rgb(0,0,0)" stroke-width="0.0010cm" stroke-linecap="round" stroke-linejoin="round" /><path d="M-7.7499993,-20.0000001 L-7.3499993,-20.0000001 -7.3499999,-21.0000001 -7.7499993,-21.0000001 -7.7499993,-20.0000001z" transform="matrix(1,0,0,-1,20.75,8)" fill="rgb(255,255,255)" stroke="rgb(0,0,0)" stroke-width="0.0010cm" stroke-linecap="round" stroke-linejoin="round" /><path d="M-18.1499991,-7.0400013 L-17.7499991,-7.0400013 -17.7499991,-8.0400013 -18.1499991,-8.0400013 -18.1499991,-7.0400013z" transform="matrix(1,0,0,-1,20.75,8)" fill="rgb(255,255,255)" stroke="rgb(0,0,0)" stroke-width="0.0010cm" stroke-linecap="round" stroke-linejoin="round" /><path d="M-18.1499991,-1.0400013 L-17.7499991,-1.0400013 -17.7499991,-2.0400013 -18.1499991,-2.0400013 -18.1499991,-1.0400013z" transform="matrix(1,0,0,-1,20.75,8)" fill="rgb(255,255,255)" stroke="rgb(0,0,0)" stroke-width="0.0010cm" stroke-linecap="round" stroke-linejoin="round" /><path d="M-18.149999,-19.0400013 L-17.749999,-19.0400013 -17.749999,-20.0400013 -18.149999,-20.0400013 -18.149999,-19.0400013z" transform="matrix(1,0,0,-1,20.75,8)" fill="rgb(255,255,255)" stroke="rgb(0,0,0)" stroke-width="0.0010cm" stroke-linecap="round" stroke-linejoin="round" /><path d="M-18.1499991,4.9599987 L-17.7499991,4.9599987 -17.7499991,3.9599987 -18.1499991,3.9599987 -18.1499991,4.9599987z" transform="matrix(1,0,0,-1,20.75,8)" fill="rgb(255,255,255)" stroke="rgb(0,0,0)" stroke-width="0.0010cm" stroke-linecap="round" stroke-linejoin="round" /><path d="M-7.3499999,-26.0000001 L-7.3499999,-27.0000001 -7.7499993,-27.0000001 -7.7499993,-26.0000001 -7.3499999,-26.0000001z" transform="matrix(1,0,0,-1,20.75,8)" fill="rgb(255,255,255)" stroke="rgb(0,0,0)" stroke-width="0.0010cm" stroke-linecap="round" stroke-linejoin="round" /><path d="M-7.7499994,-5.0000001 L-6.7499994,-5.0000001 -6.7499994,-5.4000001 -7.7499994,-5.4000001 -7.7499994,-5.0000001z" transform="matrix(1,0,0,-1,20.75,8)" fill="rgb(255,255,255)" stroke="rgb(0,0,0)" stroke-width="0.0010cm" stroke-linecap="round" stroke-linejoin="round" /><path d="M-4.25,-5.4000001 L-4.25,-5.0000001 -3.25,-5.0000001 -3.25,-5.4000001 -4.25,-5.4000001z" transform="matrix(1,0,0,-1,20.75,8)" fill="rgb(255,255,255)" stroke="rgb(0,0,0)" stroke-width="0.0010cm" stroke-linecap="round" stroke-linejoin="round" /><path d="M-18.149999,-13.0400013 L-17.749999,-13.0400013 -17.749999,-14.0400013 -18.149999,-14.0400013 -18.149999,-13.0400013z" transform="matrix(1,0,0,-1,20.75,8)" fill="rgb(255,255,255)" stroke="rgb(0,0,0)" stroke-width="0.0010cm" stroke-linecap="round" stroke-linejoin="round" /><path d="M-6.7499994,5.3999996 L-6.7499994,4.9999996 -7.7499994,4.9999996 -7.7499995,5.3999996 -6.7499994,5.3999996z" transform="matrix(1,0,0,-1,20.75,8)" fill="rgb(255,255,255)" stroke="rgb(0,0,0)" stroke-width="0.0010cm" stroke-linecap="round" stroke-linejoin="round" /><path d="M1.75,5 L1.75,5.4 2.75,5.4 2.75,5 1.75,5z" transform="matrix(1,0,0,-1,20.75,8)" fill="rgb(255,255,255)" stroke="rgb(0,0,0)" stroke-width="0.0010cm" stroke-linecap="round" stroke-linejoin="round" /><path d="M-4.25,4.9999999 L-4.25,5.3999999 -3.25,5.3999999 -3.25,4.9999999 -4.25,4.9999999z" transform="matrix(1,0,0,-1,20.75,8)" fill="rgb(255,255,255)" stroke="rgb(0,0,0)" stroke-width="0.0010cm" stroke-linecap="round" stroke-linejoin="round" /><path d="M13.75,-5.4 L13.75,-5 14.75,-5 14.75,-5.4 13.75,-5.4z" transform="matrix(1,0,0,-1,20.75,8)" fill="rgb(255,255,255)" stroke="rgb(0,0,0)" stroke-width="0.0010cm" stroke-linecap="round" stroke-linejoin="round" /><path d="M1.75,-5.4 L1.75,-5 2.75,-5 2.75,-5.4 1.75,-5.4z" transform="matrix(1,0,0,-1,20.75,8)" fill="rgb(255,255,255)" stroke="rgb(0,0,0)" stroke-width="0.0010cm" stroke-linecap="round" stroke-linejoin="round" /><path d="M7.75,-5.4 L7.75,-5 8.75,-5 8.75,-5.4 7.75,-5.4z" transform="matrix(1,0,0,-1,20.75,8)" fill="rgb(255,255,255)" stroke="rgb(0,0,0)" stroke-width="0.0010cm" stroke-linecap="round" stroke-linejoin="round" /><path d="M13.75,5 L13.75,5.4 14.75,5.4 14.75,5 13.75,5z" transform="matrix(1,0,0,-1,20.75,8)" fill="rgb(255,255,255)" stroke="rgb(0,0,0)" stroke-width="0.0010cm" stroke-linecap="round" stroke-linejoin="round" /><path d="M7.75,5 L7.75,5.4 8.75,5.4 8.75,5 7.75,5z" transform="matrix(1,0,0,-1,20.75,8)" fill="rgb(255,255,255)" stroke="rgb(0,0,0)" stroke-width="0.0010cm" stroke-linecap="round" stroke-linejoin="round" /></svg>