<?xml version="1.0" encoding="utf-8"?>
<!-- Generator: Fusion 360, Shaper Origin Export Add-In, Version 1.8.0  -->
<svg xmlns="http://www.w3.org/2000/svg" xmlns:xlink="http://www.w3.org/1999/xlink" xmlns:shaper="http://www.shapertools.com/namespaces/shaper" shaper:fusionaddin="version:1.8.0" width="75cm" height="1.2cm" version="1.1" x="0cm" y="0cm" viewBox="0 0 75 1.2" enable-background="new 0 0 75 1.2" xml:space="preserve"><path d="M-36.5,-0.2 L-31.5,-0.2 -31.5,-0.6 -30.5,-0.6 -30.5,-0.2 -25.5,-0.2 -25.5,-0.6 -24.5,-0.6 -24.5,-0.2 -19.5,-0.2 -19.5,-0.6 -18.5,-0.6 -18.5,-0.2 -13.5,-0.2 -13.5,-0.6 -12.5,-0.6 -12.5,-0.2 -7.5,-0.2 -7.5,-0.6 -6.5,-0.6 -6.5,-0.2 -1.5,-0.2 -1.5,-0.6 -0.5,-0.6 -0.5,-0.2 4.5,-0.2 4.5,-0.6 5.5,-0.6 5.5,-0.2 10.5,-0.2 10.5,-0.6 11.5,-0.6 11.5,-0.2 16.5,-0.2 16.5,-0.6 17.5,-0.6 17.5,-0.2 22.5,-0.2 22.5,-0.6 23.5,-0.6 23.5,-0.2 28.5,-0.2 28.5,-0.6 29.5,-0.6 29.5,-0.2 34.5,-0.2 34.5,-0.6 35.5,-0.6 35.5,-0.2 37.5,-0.2 37.5,0.2 37.4999983,0.6 35.4999983,0.6 35.4999983,0.2 1,0.2 1,0.6 -1,0.6 -1,0.2 -35.5,0.2 -35.5,0.6 -37.5,0.6 -37.5,-0.6 -36.5,-0.6 -36.5,-0.2z" transform="matrix(1,0,0,-1,37.5,0.6)" fill="rgb(0,0,0)" stroke-linecap="round" stroke-linejoin="round" /></svg>