<?xml version="1.0" encoding="utf-8"?>
<!-- Generator: Fusion 360, Shaper Origin Export Add-In, Version 1.8.0  -->
<svg xmlns="http://www.w3.org/2000/svg" xmlns:xlink="http://www.w3.org/1999/xlink" xmlns:shaper="http://www.shapertools.com/namespaces/shaper" shaper:fusionaddin="version:1.8.0" width="38.96cm" height="1.2cm" version="1.1" x="0cm" y="0cm" viewBox="0 0 38.96 1.2" enable-background="new 0 0 38.96 1.2" xml:space="preserve"><path d="M-18.4799991,-0.2 L-13.4799991,-0.2 -13.4799991,-0.6 -12.4799991,-0.6 -12.4799991,-0.2 -7.4799991,-0.2 -7.4799991,-0.6 -6.4799991,-0.6 -6.4799991,-0.2 -1.4799991,-0.2 -1.4799991,-0.6 -0.4799991,-0.6 -0.4799991,-0.2 4.5200009,-0.2 4.5200009,-0.6 5.5200009,-0.6 5.5200009,-0.2 10.5200009,-0.2 10.5200009,-0.6 11.5200009,-0.6 11.5200009,-0.2 16.5200009,-0.2 16.5200009,-0.6 17.5200009,-0.6 17.5200009,-0.2 19.48,-0.2 19.48,0.2 19.48,0.6 17.48,0.6 17.48,0.2 -17.4799991,0.2 -17.4799991,0.6 -19.4799991,0.6 -19.48,0.2 -19.48,-0.6 -18.4799991,-0.6 -18.4799991,-0.2z" transform="matrix(1,0,0,-1,19.48,0.6)" fill="rgb(0,0,0)" stroke-linecap="round" stroke-linejoin="round" /></svg>