<?xml version="1.0" encoding="utf-8"?>
<!-- Generator: Fusion 360, Shaper Origin Export Add-In, Version 1.8.0  -->
<svg xmlns="http://www.w3.org/2000/svg" xmlns:xlink="http://www.w3.org/1999/xlink" xmlns:shaper="http://www.shapertools.com/namespaces/shaper" shaper:fusionaddin="version:1.8.0" width="41.56cm" height="1.2cm" version="1.1" x="0cm" y="0cm" viewBox="0 0 41.56 1.2" enable-background="new 0 0 41.56 1.2" xml:space="preserve"><path d="M16.2200009,-0.2 L20.78,-0.2 20.78,0.6 18.78,0.6 18.78,0.2 -18.7799991,0.2 -18.7799991,0.6 -20.7799991,0.6 -20.78,0.2 -20.78,-0.6 -19.7799991,-0.6 -19.7799991,-0.2 -14.7799991,-0.2 -14.7799991,-0.6 -13.7799991,-0.6 -13.7799991,-0.2 -8.7799991,-0.2 -8.7799991,-0.6 -7.7799991,-0.6 -7.7799991,-0.2 -2.7799991,-0.2 -2.7799991,-0.6 -1.7799991,-0.6 -1.7799991,-0.2 3.2200009,-0.2 3.2200009,-0.6 4.2200009,-0.6 4.2200009,-0.2 9.2200009,-0.2 9.2200009,-0.6 10.2200009,-0.6 10.2200009,-0.2 15.2200009,-0.2 15.2200009,-0.6 16.2200009,-0.6 16.2200009,-0.2z" transform="matrix(1,0,0,-1,20.78,0.6)" fill="rgb(0,0,0)" stroke-linecap="round" stroke-linejoin="round" /></svg>