<?xml version="1.0" encoding="utf-8"?>
<!-- Generator: Fusion 360, Shaper Origin Export Add-In, Version 1.8.0  -->
<svg xmlns="http://www.w3.org/2000/svg" xmlns:xlink="http://www.w3.org/1999/xlink" xmlns:shaper="http://www.shapertools.com/namespaces/shaper" shaper:fusionaddin="version:1.8.0" width="28.4999994cm" height="1.2cm" version="1.1" x="0cm" y="0cm" viewBox="0 0 28.4999994 1.2" enable-background="new 0 0 28.4999994 1.2" xml:space="preserve"><path d="M-13.2499997,-0.2 L-8.2499997,-0.2 -8.2499997,-0.6 -7.2499997,-0.6 -7.2499997,-0.2 -2.2499997,-0.2 -2.2499997,-0.6 -1.2499997,-0.6 -1.2499997,-0.2 3.7500003,-0.2 3.7500003,-0.6 4.7500003,-0.6 4.7500003,-0.2 9.7500003,-0.2 9.7500003,-0.6 10.7500003,-0.6 10.7500003,-0.2 13.2499997,-0.2 13.2499997,-0.6 14.2499997,-0.6 14.2499997,0.6 11.8499997,0.6 11.8499997,0.2 -12.2499997,0.2 -12.2499997,0.6 -14.2499997,0.6 -14.2499997,-0.6 -13.2499997,-0.6 -13.2499997,-0.2z" transform="matrix(1,0,0,-1,14.2499997,0.6)" fill="rgb(0,0,0)" stroke-linecap="round" stroke-linejoin="round" /></svg>