<?xml version="1.0" encoding="utf-8"?>
<!-- Generator: Fusion 360, Shaper Origin Export Add-In, Version 1.8.0  -->
<svg xmlns="http://www.w3.org/2000/svg" xmlns:xlink="http://www.w3.org/1999/xlink" xmlns:shaper="http://www.shapertools.com/namespaces/shaper" shaper:fusionaddin="version:1.8.0" width="25.9cm" height="1.2cm" version="1.1" x="0cm" y="0cm" viewBox="0 0 25.9 1.2" enable-background="new 0 0 25.9 1.2" xml:space="preserve"><path d="M12.05,-0.2 L12.95,-0.2 12.95,0.2 12.9499994,0.6 10.5499995,0.6 10.5499995,0.2 -10.95,0.2 -10.95,0.6 -12.95,0.6 -12.95,-0.6 -11.95,-0.6 -11.95,-0.2 -6.95,-0.2 -6.95,-0.6 -5.95,-0.6 -5.95,-0.2 -0.95,-0.2 -0.95,-0.6 0.05,-0.6 0.05,-0.2 5.05,-0.2 5.05,-0.6 6.05,-0.6 6.05,-0.2 11.05,-0.2 11.05,-0.6 12.05,-0.6 12.05,-0.2z" transform="matrix(1,0,0,-1,12.95,0.6)" fill="rgb(0,0,0)" stroke-linecap="round" stroke-linejoin="round" /></svg>