<?xml version="1.0" encoding="utf-8"?>
<!-- Generator: Fusion 360, Shaper Origin Export Add-In, Version 1.8.0  -->
<svg xmlns="http://www.w3.org/2000/svg" xmlns:xlink="http://www.w3.org/1999/xlink" xmlns:shaper="http://www.shapertools.com/namespaces/shaper" shaper:fusionaddin="version:1.8.0" width="22.64cm" height="1.2cm" version="1.1" x="0cm" y="0cm" viewBox="0 0 22.64 1.2" enable-background="new 0 0 22.64 1.2" xml:space="preserve"><path d="M-11.32,-0.2 L-10.22,-0.2 -10.22,-0.6 -9.22,-0.6 -9.22,-0.2 -2.72,-0.2 -2.72,-0.6 -1.72,-0.6 -1.72,-0.2 3.28,-0.2 3.28,-0.6 4.28,-0.6 4.28,-0.2 9.28,-0.2 9.28,-0.6 10.28,-0.6 10.28,-0.2 11.3199995,-0.2 11.3199995,0.2 11.32,0.6 9.32,0.6 9.32,0.2 -9.32,0.2 -9.32,0.6 -11.32,0.6 -11.32,-0.2z" transform="matrix(1,0,0,-1,11.32,0.6)" fill="rgb(0,0,0)" stroke-linecap="round" stroke-linejoin="round" /></svg>